<svg id="Layer_1" data-name="Layer 1" xmlns="http://www.w3.org/2000/svg" viewBox="0 0 1138.74 702.4"><defs><style>.cls-1{fill:#e31837;}.cls-2{fill:#1e1c1d;}.cls-3{opacity:0.8;}</style></defs><title>lmcu-logo-stacked-white-svg</title><path id="svg_1" data-name="svg 1" class="cls-1" d="M383.55,190.77c0,105.45-85.47,190.77-190.77,190.77S1.86,296.22,1.86,190.77,87.33,0,192.63,0,383.55,85.32,383.55,190.77ZM192.63,134.72a56,56,0,1,0,56.05,56.05,56,56,0,0,0-56.05-56.05Z"/><path id="svg_2" data-name="svg 2" class="cls-2" d="M1.86,582.86V468.12H26.48V561.8H66.89v21.06Z"/><path id="svg_3" data-name="svg 3" class="cls-2" d="M118.3,584.57c-25.55,0-45.52-18.43-45.52-43.21s20-42.73,45.52-42.73,45.53,17.8,45.53,42.73S143.7,584.57,118.3,584.57Zm0-65.66c-13.93,0-21.83,9-21.83,22.45s7.9,22.77,21.83,22.77,21.84-9.45,21.84-22.77S132.24,518.91,118.3,518.91Z"/><path id="svg_4" data-name="svg 4" class="cls-2" d="M234.13,582.86V530.22c0-8.37-6.82-13.17-15.95-13.17-8.67,0-17.19,5.58-17.19,17.81v48H177.92V500.18H201V507c6-6.5,14.09-8.52,21.68-8.52,17,0,34.53,10.53,34.53,31.59v52.8Z"/><path id="svg_5" data-name="svg 5" class="cls-2" d="M338.65,582.86v-7.43a34.51,34.51,0,0,1-23.07,9c-25.09,0-45.22-18.12-45.22-43s20-42.89,45.22-42.89c8.82,0,18,4,23.07,9.14V468.28h23.07V582.86ZM315.58,518.6c-12.24,0-21.53,8.21-21.53,22.92s9.14,22.92,21.53,22.92c15.33,0,23.07-8.83,23.07-22.92S330.91,518.6,315.58,518.6Z"/><path id="svg_6" data-name="svg 6" class="cls-2" d="M421.49,584.57c-25.39,0-45.52-18.43-45.52-43.21s20.13-42.73,45.52-42.73,45.52,18,45.52,42.73S446.89,584.57,421.49,584.57Zm0-65.66c-13.94,0-21.83,9-21.83,22.45s7.89,22.77,21.83,22.77,21.83-9.45,21.83-22.77S435.43,518.91,421.49,518.91Z"/><path id="svg_7" data-name="svg 7" class="cls-2" d="M537.16,582.86V530.22c0-8.37-6.81-13.17-15.95-13.17-8.67,0-17.19,5.58-17.19,17.81v48H481V500.18H504V507c6-6.5,14.09-8.52,21.68-8.52,17,0,34.53,10.53,34.53,31.59v52.8Z"/><path id="svg_8" data-name="svg 8" class="cls-2" d="M709.5,582.86l-4.18-54.35-32.21,40.73-32.2-40.73-4.18,54.35H612.42l8.67-115,52,66.74,52-66.74,8.67,115.05Z"/><path id="svg_9" data-name="svg 9" class="cls-2" d="M804.58,582.86v-6.81c-5.89,6.5-14.09,8.52-21.68,8.52C766,584.57,748.37,574,748.37,553v-52.8h23.07V553c0,8.21,6.82,13.16,15.8,13.16,8.67,0,17.18-5.57,17.18-18v-48H827.5v82.68Z"/><path id="svg_10" data-name="svg 10" class="cls-2" d="M880.92,518.91v64H857.85v-64H842.52V500.18h15.33V468.12h23.07v32.06h18.42v18.73Z"/><path id="svg_11" data-name="svg 11" class="cls-2" d="M969.8,582.86v-6.81c-5.88,6.5-14.09,8.52-21.68,8.52-17,0-34.53-10.53-34.53-31.59v-52.8h23.07V553c0,8.21,6.82,13.16,16,13.16,8.67,0,17.19-5.57,17.19-18v-48h23.07v82.68Z"/><path id="svg_12" data-name="svg 12" class="cls-2" d="M1075.09,582.86v-6.81c-5.11,5.11-14.24,8.52-23.07,8.52-25.08,0-45.21-18.12-45.21-43.05s20.13-43,45.21-43c8.83,0,18.12,3.41,23.07,8.52v-6.81h23.08v82.68Zm-23.22-64.1c-12.24,0-21.53,7.89-21.53,22.76s9.29,22.76,21.53,22.76c15.33,0,23.07-8.67,23.07-22.76s-7.59-22.76-23.07-22.76Z"/><path id="svg_13" data-name="svg 13" class="cls-2" d="M1115.66,582.86v-115h23.08V582.86Z"/><g id="svg_14" data-name="svg 14" class="cls-3"><g id="svg_15" data-name="svg 15"><path id="svg_16" data-name="svg 16" class="cls-2" d="M34.22,702.25C14.4,702.25,0,685.68,0,664.93s14.4-37.47,34.22-37.47a34.1,34.1,0,0,1,24.31,10.22l-5.88,5.73c-4.8-4.8-11-8.52-18.43-8.52C18.58,634.89,9,648.83,9,664.78s9.45,29.88,25.24,29.88c7.59,0,13.63-3.56,18.43-8.36l5.88,5.57A33.36,33.36,0,0,1,34.22,702.25Z"/><path id="svg_17" data-name="svg 17" class="cls-2" d="M95.23,656.72a12.75,12.75,0,0,0-7.12-2c-7.59,0-12.39,5.42-12.39,13.94v32.52H67.51V648.36h8.21v7.44A14.08,14.08,0,0,1,89,647.43a18.37,18.37,0,0,1,11.61,3.88Z"/><path id="svg_18" data-name="svg 18" class="cls-2" d="M109,676.55c.93,10.68,7.9,18.42,17.65,18.42a21.8,21.8,0,0,0,13.94-4.8l5.26,5.42a28.35,28.35,0,0,1-19.35,6.66c-13.63,0-26.32-9.6-26.32-28.34,0-17.34,12.38-26.48,24.77-26.48,11.92,0,23.54,8.06,23.54,28.5v.62Zm16.11-21.84c-7,0-14.25,4.8-15.64,14.87h30C138.9,659.51,132.08,654.71,125.12,654.71Z"/><path id="svg_19" data-name="svg 19" class="cls-2" d="M201.3,701.17V692.8a22,22,0,0,1-18.58,9.45c-13.47,0-26.17-11.15-26.17-27.41s11.77-27.41,26.17-27.41a22,22,0,0,1,18.58,9V628.54h8.21v72.78H201.3Zm-18.58-46.46c-9,0-17.5,6.35-17.5,20.13,0,13,8.52,20.13,17.5,20.13,12.08,0,18.58-8.05,18.58-20.13s-6.5-20.13-18.58-20.13Z"/><path id="svg_20" data-name="svg 20" class="cls-2" d="M226.85,637.83a5.11,5.11,0,1,1,0-10.22h0a5.11,5.11,0,0,1,0,10.22Zm-4.18,63.34V648.36h8.21v52.81Z"/><path id="svg_21" data-name="svg 21" class="cls-2" d="M259.52,655.33v45.84h-8.21V655.33H241.09v-7.12h10.22V628.39h8.21v20h11.92v7.13Z"/><path id="svg_22" data-name="svg 22" class="cls-2" d="M331.68,702.25c-18.43,0-29.58-13.63-29.58-33.91v-40h8.68v40c0,16.1,7.12,26.32,20.9,26.32s20.9-10.22,20.9-26.32v-40h8.52v40C361.1,688.62,350.11,702.25,331.68,702.25Z"/><path id="svg_23" data-name="svg 23" class="cls-2" d="M410.34,701.17V668c0-10.07-6.5-14.09-13.78-14.09-8.05,0-14.87,5.73-14.87,15.33v31.9h-8.2V648.36h8.2V656c3.57-6,9.61-8.67,16.26-8.67,12.08,0,20.75,7.12,20.75,20.59v33.3Z"/><path id="svg_24" data-name="svg 24" class="cls-2" d="M435.12,637.83a4.93,4.93,0,0,1-5-5.11,5,5,0,0,1,5.11-5,5,5,0,1,1-.15,10.06Zm-4,63.34V648.36h8.21v52.81Z"/><path id="svg_25" data-name="svg 25" class="cls-2" d="M477.39,702.25a23.11,23.11,0,1,1,.77.15A1.73,1.73,0,0,0,477.39,702.25Zm0-47.54c-11.46,0-18.89,8.83-18.89,20s7.43,20.13,18.89,20.13,18.89-9.14,18.89-20.13S488.69,654.71,477.39,654.71Z"/><path id="svg_26" data-name="svg 26" class="cls-2" d="M552.34,701.17V668c0-10.07-6.51-14.09-13.94-14.09-7.9,0-14.87,5.73-14.87,15.33v31.9h-8.2V648.36h8.2V656c3.57-6,9.6-8.67,16.26-8.67,12.08,0,20.75,7.12,20.75,20.59v33.3Z"/></g></g></svg>