<svg xmlns="http://www.w3.org/2000/svg" width="25.509" height="20.718" viewBox="0 0 25.509 20.718"><path d="M22.887,8.544c.016.227.016.453.016.68A14.773,14.773,0,0,1,8.028,24.1,14.774,14.774,0,0,1,0,21.752a10.815,10.815,0,0,0,1.262.065,10.47,10.47,0,0,0,6.491-2.234,5.237,5.237,0,0,1-4.888-3.626,6.593,6.593,0,0,0,.987.081,5.529,5.529,0,0,0,1.376-.178,5.229,5.229,0,0,1-4.192-5.131v-.065a5.265,5.265,0,0,0,2.363.664A5.236,5.236,0,0,1,1.78,4.336,14.86,14.86,0,0,0,12.56,9.807a5.9,5.9,0,0,1-.129-1.2,5.233,5.233,0,0,1,9.048-3.577A10.293,10.293,0,0,0,24.8,3.769,5.214,5.214,0,0,1,22.5,6.65a10.481,10.481,0,0,0,3.011-.809,11.238,11.238,0,0,1-2.622,2.7Z" transform="translate(0 -3.381)" fill="#191847"/></svg>