<svg xmlns="http://www.w3.org/2000/svg" width="24.007" height="24.002" viewBox="0 0 24.007 24.002"><path d="M12,8.085a6.154,6.154,0,1,0,6.154,6.154A6.144,6.144,0,0,0,12,8.085Zm0,10.155a4,4,0,1,1,4-4A4.008,4.008,0,0,1,12,18.239ZM19.842,7.833A1.435,1.435,0,1,1,18.407,6.4,1.432,1.432,0,0,1,19.842,7.833ZM23.918,9.29a7.1,7.1,0,0,0-1.939-5.029A7.15,7.15,0,0,0,16.95,2.322c-1.982-.112-7.921-.112-9.9,0A7.14,7.14,0,0,0,2.018,4.255,7.126,7.126,0,0,0,.079,9.285c-.112,1.982-.112,7.921,0,9.9a7.1,7.1,0,0,0,1.939,5.029,7.159,7.159,0,0,0,5.029,1.939c1.982.112,7.921.112,9.9,0a7.1,7.1,0,0,0,5.029-1.939,7.15,7.15,0,0,0,1.939-5.029c.112-1.982.112-7.916,0-9.9Zm-2.56,12.024A4.05,4.05,0,0,1,19.076,23.6c-1.58.627-5.329.482-7.075.482s-5.5.139-7.075-.482a4.05,4.05,0,0,1-2.282-2.282c-.627-1.58-.482-5.329-.482-7.075s-.139-5.5.482-7.075A4.05,4.05,0,0,1,4.926,4.882C6.506,4.255,10.255,4.4,12,4.4s5.5-.139,7.075.482a4.05,4.05,0,0,1,2.282,2.282c.627,1.58.482,5.329.482,7.075S21.984,19.739,21.358,21.314Z" transform="translate(0.005 -2.238)" fill="#191847"/></svg>