<?xml version="1.0" encoding="utf-8"?>
<!-- Generator: Adobe Illustrator 25.0.0, SVG Export Plug-In . SVG Version: 6.00 Build 0)  -->
<svg version="1.1" id="Capa_1" xmlns="http://www.w3.org/2000/svg" xmlns:xlink="http://www.w3.org/1999/xlink" x="0px" y="0px"
	 viewBox="0 0 512 256" style="enable-background:new 0 0 512 256;" xml:space="preserve">
<style type="text/css">
	.st0{fill:#ec777a;}
</style>
<g>
	<g>
		<path class="st0" d="M96,149.3c-29.4,0-53.3,23.9-53.3,53.3S66.6,256,96,256s53.3-23.9,53.3-53.3S125.4,149.3,96,149.3z M96,234.7
			c-17.6,0-32-14.4-32-32s14.4-32,32-32s32,14.4,32,32C128,220.3,113.6,234.7,96,234.7z"/>
	</g>
</g>
<g>
	<g>
		<path class="st0" d="M416,149.3c-29.4,0-53.3,23.9-53.3,53.3S386.6,256,416,256s53.3-23.9,53.3-53.3S445.4,149.3,416,149.3z
			 M416,234.7c-17.6,0-32-14.4-32-32s14.4-32,32-32s32,14.4,32,32C448,220.3,433.6,234.7,416,234.7z"/>
	</g>
</g>
<g>
	<g>
		<path class="st0" d="M448,85.3h-18c-6.6,0-13.1-2.3-18.2-6.4l-84.1-67.2C318.3,4.2,306.4,0,294.4,0H140.2
			c-17.9,0-34.5,8.9-44.4,23.7L77.6,51c-5.4,8.1-14.5,13-24.3,13C23.9,64,0,87.9,0,117.3V160c0,29.4,23.9,53.3,53.3,53.3
			c5.9,0,10.7-4.8,10.7-10.7S59.2,192,53.3,192c-17.6,0-32-14.4-32-32v-42.7c0-17.6,14.4-32,32-32c16.9,0,32.6-8.4,42-22.5
			l18.2-27.2c6-8.9,15.9-14.3,26.6-14.3h154.2c7.3,0,14.3,2.5,20,7l84.1,67.2c8.9,7.1,20.1,11.1,31.6,11.1h18
			c31.3,0,42.7,31.9,42.7,53.3c0,21-16.1,32-32,32c-5.9,0-10.7,4.8-10.7,10.7s4.8,10.7,10.7,10.7c30.4,0,53.3-22.9,53.3-53.3
			C512,123.8,489.6,85.3,448,85.3z"/>
	</g>
</g>
<g>
	<g>
		<path class="st0" d="M373.3,192H138.7c-5.9,0-10.7,4.8-10.7,10.7s4.8,10.7,10.7,10.7h234.7c5.9,0,10.7-4.8,10.7-10.7
			S379.2,192,373.3,192z"/>
	</g>
</g>
<g>
	<g>
		<path class="st0" d="M352,85.3h-96v-32c0-5.9-4.8-10.7-10.7-10.7s-10.7,4.8-10.7,10.7V96c0,5.9,4.8,10.7,10.7,10.7H352
			c5.9,0,10.7-4.8,10.7-10.7S357.9,85.3,352,85.3z"/>
	</g>
</g>
<g>
	<g>
		<path class="st0" d="M202.7,85.3h-68.1l13.6-27.2c2.6-5.3,0.5-11.7-4.8-14.3c-5.3-2.6-11.7-0.5-14.3,4.8l-21.3,42.7
			c-1.7,3.3-1.5,7.2,0.5,10.4s5.4,5.1,9.1,5.1h85.3c5.9,0,10.7-4.8,10.7-10.7S208.6,85.3,202.7,85.3z"/>
	</g>
</g>
<g>
	<g>
		<path class="st0" d="M288,128h-21.3c-5.9,0-10.7,4.8-10.7,10.7s4.8,10.7,10.7,10.7H288c5.9,0,10.7-4.8,10.7-10.7
			S293.9,128,288,128z"/>
	</g>
</g>
</svg>
