<svg viewBox="0 0 74 74" xmlns="http://www.w3.org/2000/svg">
  <path d="M52.8 72H21.2a5.11 5.11 0 01-5.094-4.8l-2.841-47.132a1 1 0 011-1.06h45.472a1 1 0 011 1.06L57.89 67.2A5.11 5.11 0 0152.8 72zM15.325 21.008l2.781 46.076A3.108 3.108 0 0021.2 70h31.6a3.108 3.108 0 003.1-2.917l2.781-46.076z"/>
  <path d="M62.646 21.008H11.354a1 1 0 01-1-1v-4.237a7.163 7.163 0 017.155-7.155h38.983a7.163 7.163 0 017.155 7.155v4.237a1 1 0 01-1.001 1zm-50.293-2h49.293v-3.237a5.161 5.161 0 00-5.155-5.155H17.508a5.161 5.161 0 00-5.155 5.155z"/>
  <path d="M46.232 10.616H27.768a1 1 0 01-1-1V6.077A4.082 4.082 0 0130.845 2h12.31a4.082 4.082 0 014.077 4.077v3.539a1 1 0 01-1 1zm-17.464-2h16.464V6.077A2.079 2.079 0 0043.155 4h-12.31a2.079 2.079 0 00-2.077 2.077zM47.065 61.739a1 1 0 01-1-1V31.162a1 1 0 112 0v29.577a1 1 0 01-1 1zM37 61.739a1 1 0 01-1-1V31.162a1 1 0 112 0v29.577a1 1 0 01-1 1zM26.935 61.739a1 1 0 01-1-1V31.162a1 1 0 012 0v29.577a1 1 0 01-1 1z"/>
</svg>