<?xml version="1.0" encoding="utf-8"?>
<!-- Generator: Adobe Illustrator 25.0.0, SVG Export Plug-In . SVG Version: 6.00 Build 0)  -->
<svg version="1.1" id="Layer_1" xmlns="http://www.w3.org/2000/svg" xmlns:xlink="http://www.w3.org/1999/xlink" x="0px" y="0px"
	 viewBox="0 0 240.2 512" style="enable-background:new 0 0 240.2 512;" xml:space="preserve">
<style type="text/css">
	.st0{fill:#273c75;}
</style>
<g>
	<path class="st0" d="M24,142.6v73.2c0,43.1,31.1,79,72,86.5v9.5c0,10.4,6.7,19.2,16,22.5v24.2c0,2.4-1,4.8-2.7,6.6
		c-1.8,1.8-4.1,2.7-6.6,2.7H87.6c-10.6,0-20.5,4.1-28,11.6C52.2,387,48,397,48,407.5c0,22.3,18.1,40.4,40.4,40.4h7.6
		c4.4,0,8-3.6,8-8s-3.6-8-8-8h-7.6C75,432,64,421,64,407.5c0-6.3,2.5-12.2,6.9-16.7c4.5-4.5,10.4-6.9,16.7-6.9h15.1
		c6.7,0,13.1-2.6,17.9-7.4c4.8-4.8,7.4-11.1,7.4-17.9v-24.2c9.3-3.3,16-12.1,16-22.5v-9.5c40.9-7.6,72-43.4,72-86.5v-73.2
		c13.8-3.6,24-16,24-30.9c0-17.7-14.4-32-32-32v-56c0-6.4-2.5-12.4-7-17c-8.9-8.9-25-8.9-34,0c-4.5,4.5-7,10.6-7,17v56H80.1v-56
		c0-6.4-2.5-12.4-7-17c-8.9-8.9-25-8.9-34,0c-4.5,4.5-7,10.6-7,17v56c-17.7,0-32,14.4-32,32C0,126.6,10.2,139.1,24,142.6L24,142.6z
		 M128.1,311.9c0,4.4-3.6,8-8,8c-4.4,0-8-3.6-8-8v-8h16V311.9z M128.1,287.9h-16c-39.7,0-72-32.3-72-72v-72h160.1v72
		C200.1,255.6,167.8,287.9,128.1,287.9z M176.1,23.7c0-2.1,0.8-4.1,2.3-5.7c3-3,8.3-3,11.3,0c1.5,1.5,2.3,3.5,2.3,5.7v56h-16V23.7z
		 M48,23.7c0-2.1,0.8-4.1,2.3-5.7c3-3,8.3-3,11.3,0c1.5,1.5,2.3,3.5,2.3,5.7v56H48L48,23.7z M32,95.7h176.1c8.8,0,16,7.2,16,16
		s-7.2,16-16,16H32c-8.8,0-16-7.2-16-16S23.2,95.7,32,95.7z"/>
	<path class="st0" d="M112.1,504c0,4.4,3.6,8,8,8c4.4,0,8-3.6,8-8v-4.2c0-1,0.4-2,1.1-2.7c0.7-0.7,1.7-1.1,2.7-1.1h20.3
		c8.6,0,16.6-3.3,22.6-9.4c6-6,9.4-14.2,9.4-22.6c0-8.6-3.3-16.6-9.4-22.6c-6-6.1-14.1-9.4-22.6-9.4h-8c-4.4,0-8,3.6-8,8s3.6,8,8,8
		h8c4.2,0,8.3,1.7,11.3,4.7c3,3,4.7,7,4.7,11.3c0,4.2-1.7,8.3-4.7,11.3c-3,3-7,4.7-11.3,4.7h-20.3c-5.2,0-10.3,2.1-14,5.8
		c-3.7,3.7-5.8,8.7-5.8,14L112.1,504L112.1,504z"/>
	<path class="st0" d="M144.1,207.8h-33.9l16.7-27.9c2.3-3.8,1-8.7-2.7-11c-3.8-2.3-8.7-1-11,2.7l-24,40c-1.5,2.5-1.5,5.6-0.1,8.1
		c1.4,2.5,4.1,4.1,7,4.1H130l-16.7,27.9c-2.3,3.8-1,8.7,2.7,11c1.3,0.8,2.7,1.1,4.1,1.1c2.7,0,5.4-1.4,6.9-3.9l24-40
		c1.5-2.5,1.5-5.6,0.1-8.1C149.6,209.4,147,207.8,144.1,207.8L144.1,207.8z"/>
	<circle class="st0" cx="120.1" cy="440" r="8"/>
</g>
</svg>
