<?xml version="1.0" encoding="utf-8"?>
<!-- Generator: Adobe Illustrator 25.0.0, SVG Export Plug-In . SVG Version: 6.00 Build 0)  -->
<svg version="1.1" id="_x31_" xmlns="http://www.w3.org/2000/svg" xmlns:xlink="http://www.w3.org/1999/xlink" x="0px" y="0px"
	 viewBox="0 0 512 469.3" style="enable-background:new 0 0 512 469.3;" xml:space="preserve">
<style type="text/css">
	.st0{fill:#ffffff;}
</style>
<path class="st0" d="M341.3,341.3c-23.5,0-42.7-19.1-42.7-42.7c0-23.5,19.1-42.7,42.7-42.7s42.7,19.1,42.7,42.7
	S364.9,341.3,341.3,341.3z M341.3,277.3c-11.8,0-21.3,9.6-21.3,21.3c0,11.8,9.6,21.3,21.3,21.3c11.8,0,21.3-9.6,21.3-21.3
	C362.7,286.9,353.1,277.3,341.3,277.3z"/>
<path class="st0" d="M469.3,469.3c-23.5,0-42.7-19.1-42.7-42.7c0-23.5,19.1-42.7,42.7-42.7s42.7,19.1,42.7,42.7
	C512,450.2,492.9,469.3,469.3,469.3z M469.3,405.3c-11.8,0-21.3,9.6-21.3,21.3c0,11.8,9.6,21.3,21.3,21.3s21.3-9.6,21.3-21.3
	C490.7,414.9,481.1,405.3,469.3,405.3z"/>
<path class="st0" d="M330.7,469.3c-2.3,0-4.6-0.7-6.5-2.2c-4.7-3.6-5.5-10.3-1.9-15l149.3-192c3.6-4.6,10.3-5.5,15-1.9
	c4.7,3.6,5.5,10.3,1.9,15l-149.3,192C337,467.9,333.8,469.3,330.7,469.3L330.7,469.3z"/>
<path class="st0" d="M245.3,320h-192C23.9,320,0,296.1,0,266.7V53.3C0,23.9,23.9,0,53.3,0H416c29.4,0,53.3,23.9,53.3,53.3v149.3
	c0,5.9-4.8,10.7-10.7,10.7c-5.9,0-10.7-4.8-10.7-10.7V53.3c0-17.6-14.4-32-32-32H53.3c-17.6,0-32,14.4-32,32v213.3
	c0,17.6,14.4,32,32,32h192c5.9,0,10.7,4.8,10.7,10.7S251.2,320,245.3,320z"/>
<path class="st0" d="M458.7,85.3h-448C4.8,85.3,0,80.6,0,74.7S4.8,64,10.7,64h448c5.9,0,10.7,4.8,10.7,10.7S464.6,85.3,458.7,85.3z"
	/>
<path class="st0" d="M458.7,149.3h-448c-5.9,0-10.7-4.8-10.7-10.7S4.8,128,10.7,128h448c5.9,0,10.7,4.8,10.7,10.7
	S464.6,149.3,458.7,149.3z"/>
</svg>
