<?xml version="1.0" encoding="utf-8"?>
<!-- Generator: Adobe Illustrator 25.0.0, SVG Export Plug-In . SVG Version: 6.00 Build 0)  -->
<svg version="1.1" id="Layer_1" xmlns="http://www.w3.org/2000/svg" xmlns:xlink="http://www.w3.org/1999/xlink" x="0px" y="0px"
	 viewBox="0 0 504 504" style="enable-background:new 0 0 504 504;" xml:space="preserve">
<style type="text/css">
	.st0{fill:#74b9ff;}
</style>
<path class="st0" d="M455.4,280H224V48.6c0-2.2-0.9-4.3-2.5-5.8s-3.8-2.3-6-2.1C91.9,49.5-2.9,153.8,0.1,277.6
	C3,401.4,102.7,501,226.5,503.9S454.6,412,463.4,288.5c0.2-2.2-0.6-4.4-2.1-6C459.7,280.9,457.6,280,455.4,280L455.4,280z M232,488
	c-114.7,0.1-209.4-89.5-215.8-203.9C9.8,169.6,94,70,208,57.4V288c0,4.4,3.6,8,8,8h230.7C434.2,405.2,341.9,487.7,232,488z"/>
<path class="st0" d="M272,0c-4.4,0-8,3.6-8,8v224c0,4.4,3.6,8,8,8h224c4.4,0,8-3.6,8-8C503.9,104,400.1,0.2,272,0z M280,224V16.2
	c113,4.3,203.5,94.9,207.8,207.8H280z"/>
</svg>
