<?xml version="1.0" encoding="utf-8"?>
<!-- Generator: Adobe Illustrator 25.0.0, SVG Export Plug-In . SVG Version: 6.00 Build 0)  -->
<svg version="1.1" id="Icons" xmlns="http://www.w3.org/2000/svg" xmlns:xlink="http://www.w3.org/1999/xlink" x="0px" y="0px"
	 viewBox="0 0 481.9 481.8" style="enable-background:new 0 0 481.9 481.8;" xml:space="preserve">
<style type="text/css">
	.st0{fill:#9170ff;}
</style>
<path class="st0" d="M398.2,223.7c-3.4,0-6.3-2.5-6.8-5.9C381,152.3,329.6,100.9,264.1,90.5c-3.7-0.6-6.2-3.9-5.8-7.6
	c0-0.4,0-0.7,0-1.1V6.9c0-3.8,3.1-6.9,6.9-6.9c0.2,0,0.5,0,0.7,0c114,12,204,102,216,216c0.4,3.8-2.4,7.2-6.2,7.6
	c-0.2,0-0.5,0-0.7,0h-74.8c-0.4,0-0.7,0-1.1,0C398.7,223.7,398.5,223.7,398.2,223.7L398.2,223.7z M404,209.8h63.1
	C453,108.5,373.4,28.8,272.1,14.7v63.1C338.8,91,390.9,143.1,404,209.8z"/>
<path class="st0" d="M265.2,481.8c-3.8,0-6.9-3.1-6.9-6.9v-74.9c0-0.4,0-0.7,0-1.1c-0.4-3.7,2.2-7.1,5.8-7.6
	C329.6,380.9,381,329.5,391.4,264c0.6-3.7,3.9-6.2,7.6-5.8h1.1h74.8c3.8,0,6.9,3.1,7,6.9c0,0.2,0,0.5,0,0.7
	c-12,114-102,204.1-216,216C265.6,481.8,265.4,481.8,265.2,481.8L265.2,481.8z M272.1,404v63.1C373.4,453,453,373.4,467.2,272.1H404
	C390.9,338.7,338.8,390.9,272.1,404z"/>
<path class="st0" d="M146.9,119.6c-2,0-3.9-0.9-5.2-2.4c-0.3-0.4-0.6-0.7-1-1L87.7,63.2c-2.7-2.7-2.7-7.1,0-9.8
	c0.2-0.2,0.3-0.3,0.5-0.5C124.7,23.2,169.2,4.8,216,0c1.9-0.2,3.9,0.4,5.3,1.7c1.5,1.3,2.3,3.2,2.3,5.1v74.9c0,0.4,0,0.7,0,1.1
	c0.4,3.7-2.2,7.1-5.8,7.6c-24.2,3.7-47.2,13.2-66.9,27.7C149.8,119.1,148.3,119.6,146.9,119.6L146.9,119.6z M103,58.9l44.7,44.6
	c18.7-12.7,39.9-21.5,62.2-25.8V14.7C171,20,134.2,35.2,103,58.9z"/>
<path class="st0" d="M83.7,223.7c-0.3,0-0.5,0-0.8,0c-0.4,0-0.7,0-1.1,0H7c-3.8,0-6.9-3.1-7-6.9c0-0.2,0-0.5,0-0.7
	C4.8,169.2,23.2,124.7,53,88.2c1.2-1.5,3.1-2.4,5-2.5c2-0.1,3.9,0.6,5.2,2l52.9,52.9c0.4,0.3,0.6,0.7,1,0.9c2.8,2.4,3.2,6.4,1.1,9.4
	c-14.5,19.7-24,42.7-27.7,66.9C90,221.2,87.1,223.7,83.7,223.7z M14.7,209.8h63.1c4.2-22.3,13-43.4,25.8-62.2L59,103
	C35.3,134.2,20,171,14.7,209.8z"/>
<path class="st0" d="M216.7,481.8c-0.2,0-0.5,0-0.7,0c-114-12-204-102-216-216c-0.4-3.8,2.4-7.2,6.2-7.6c0.2,0,0.5,0,0.7,0h74.8h1.1
	c3.7-0.4,7.1,2.2,7.6,5.8c10.4,65.5,61.8,116.9,127.3,127.3c3.7,0.6,6.2,3.9,5.8,7.6c0,0.4,0,0.7,0,1.1v74.8
	C223.7,478.7,220.6,481.8,216.7,481.8L216.7,481.8z M14.7,272.1C28.9,373.4,108.5,453,209.8,467.1V404
	c-66.7-13.1-118.8-65.3-132-132H14.7z"/>
<path class="st0" d="M280.8,313c-0.6,0-1.1,0-1.7,0c-16.9-1-29.8-15.4-28.9-32.3c1-16.9,15.4-29.8,32.3-28.9
	c16.9,1,29.8,15.4,28.9,32.3C310.5,300.3,297.1,313,280.8,313z M280.8,265.3c-9.3,0-16.9,7.6-16.9,16.9c0,9.3,7.6,16.9,16.9,16.9
	c9.3,0,16.9-7.6,16.9-16.9c0-4.2-1.5-8.2-4.3-11.3C290.2,267.3,285.6,265.3,280.8,265.3z"/>
<path class="st0" d="M201.1,230.4c-17,0-30.8-13.8-30.8-30.7c0-17,13.8-30.8,30.7-30.8c8.7,0,17.1,3.7,22.9,10.2
	c11.3,12.6,10.3,32.1-2.3,43.4C216,227.6,208.7,230.4,201.1,230.4L201.1,230.4z M201.1,182.7c-9.3,0-16.9,7.6-16.9,16.9
	c0,9.3,7.6,16.9,16.9,16.9c9.3,0,16.9-7.6,16.9-16.9c0-4.2-1.5-8.2-4.3-11.3c-3-3.4-7.2-5.4-11.7-5.6
	C201.7,182.7,201.4,182.7,201.1,182.7L201.1,182.7z"/>
<path class="st0" d="M184.1,303.2c-3.8,0-6.9-3.1-6.9-6.9c0-1.9,0.7-3.7,2.1-5l113.6-110.7c2.7-2.7,7.1-2.6,9.8,0.1
	c2.7,2.7,2.6,7.1-0.1,9.8L189,301.2C187.7,302.5,186,303.2,184.1,303.2L184.1,303.2z"/>
</svg>
