<?xml version="1.0" encoding="utf-8"?>
<!-- Generator: Adobe Illustrator 25.0.0, SVG Export Plug-In . SVG Version: 6.00 Build 0)  -->
<svg version="1.1" id="Layer_1" xmlns="http://www.w3.org/2000/svg" xmlns:xlink="http://www.w3.org/1999/xlink" x="0px" y="0px"
	 viewBox="0 0 512 512" style="enable-background:new 0 0 512 512;" xml:space="preserve">
<style type="text/css">
	.st0{fill:#ec777a;}
</style>
<g>
	<g>
		<path class="st0" d="M499.2,486.4h-38.4V281.6h25.6c10.4,0,19.7-6.2,23.7-15.8c4-9.6,1.8-20.6-5.5-27.9L274.1,7.5
			c-5-5-11.6-7.5-18.1-7.5s-13.1,2.5-18.1,7.5L166.4,79V51.2c0-14.1-11.5-25.6-25.6-25.6h-25.6c-14.1,0-25.6,11.5-25.6,25.6v104.6
			L7.5,237.9C0.2,245.2-2,256.2,2,265.8c4,9.6,13.3,15.8,23.6,15.8h25.6v204.8H12.8c-7.1,0-12.8,5.7-12.8,12.8
			c0,7.1,5.7,12.8,12.8,12.8h486.4c7.1,0,12.8-5.7,12.8-12.8C512,492.1,506.3,486.4,499.2,486.4z M115.2,51.2h25.6v53.4l-25.6,25.6
			C115.2,130.2,115.2,51.2,115.2,51.2z M435.2,486.4H76.8V256H25.6L256,25.6L486.4,256h-51.2L435.2,486.4L435.2,486.4z"/>
	</g>
</g>
<g>
	<g>
		
			<rect x="111.2" y="320" transform="matrix(0.7071 -0.7071 0.7071 0.7071 -160.3429 278.4923)" class="st0" width="289.6" height="25.6"/>
	</g>
</g>
<g>
	<g>
		<path class="st0" d="M192,217.6c-28.2,0-51.2,23-51.2,51.2s23,51.2,51.2,51.2c28.2,0,51.2-23,51.2-51.2S220.2,217.6,192,217.6z
			 M192,294.4c-14.1,0-25.6-11.5-25.6-25.6c0-14.1,11.5-25.6,25.6-25.6s25.6,11.5,25.6,25.6C217.6,282.9,206.1,294.4,192,294.4z"/>
	</g>
</g>
<g>
	<g>
		<path class="st0" d="M320,345.6c-28.2,0-51.2,23-51.2,51.2s23,51.2,51.2,51.2c28.2,0,51.2-23,51.2-51.2S348.2,345.6,320,345.6z
			 M320,422.4c-14.1,0-25.6-11.5-25.6-25.6s11.5-25.6,25.6-25.6c14.1,0,25.6,11.5,25.6,25.6C345.6,410.9,334.1,422.4,320,422.4z"/>
	</g>
</g>
</svg>
