<?xml version="1.0" encoding="utf-8"?>
<!-- Generator: Adobe Illustrator 25.0.0, SVG Export Plug-In . SVG Version: 6.00 Build 0)  -->
<svg version="1.1" id="Capa_1" xmlns="http://www.w3.org/2000/svg" xmlns:xlink="http://www.w3.org/1999/xlink" x="0px" y="0px"
	 viewBox="0 0 512 410.7" style="enable-background:new 0 0 512 410.7;" xml:space="preserve">
<style type="text/css">
	.st0{fill:#ffffff;}
</style>
<g>
	<g>
		<path class="st0" d="M473.5,212c-5.7,0-10.9,1.4-15.5,3.5c-7-9-18-14.8-30.3-14.8c-6.4,0-12.2,1.7-17.2,4.2l-0.5,0.3l-15.7,9.3
			c-7-8.4-17.6-13.8-29.4-13.8c-6.4,0-12.2,1.7-17.2,4.2l-0.6,0.4l-60.2,36.9c-13.6-4-28.7-8.4-43.3-12.6
			c-15.4-4.4-30.2-8.4-42-11.4c-5.9-1.5-11.1-2.7-15.4-3.6c-2.1-0.4-4-0.8-5.7-1c-1.7-0.3-3.1-0.4-4.7-0.4c-1.2,0-2.3,0.1-3.5,0.3
			c-4.4,0.6-10.7,1.9-18.2,3.7c-15.2,3.6-34.6,8.8-45.3,11.7v-18.1c0-12.6-10.3-22.9-22.9-22.9H22.9C10.3,187.6,0,197.9,0,210.5
			v177.3c0,12.6,10.3,22.9,22.9,22.9h62.9c12.6,0,22.9-10.3,22.9-22.9v-13.8c13.6,3,43.7,9.5,75.5,16c21.5,4.4,43.7,8.8,62.1,12.2
			c9.2,1.7,17.4,3.1,24.1,4c6.8,1,11.8,1.6,15.7,1.6c3,0,5.8-0.6,8.9-1.4c5.7-1.6,12.2-4.3,19.6-7.9c25.9-12.6,63-36.2,98-59.6
			c35-23.3,67.7-46.4,83.7-57.4c10-6.9,15.7-18.6,15.7-31C512,229.2,494.8,212,473.5,212z M91.5,387.8c0,3.1-2.6,5.7-5.7,5.7H22.9
			c-3.1,0-5.7-2.6-5.7-5.7V210.5c0-3.1,2.6-5.7,5.7-5.7h62.9c3.1,0,5.7,2.6,5.7,5.7V387.8z M486.6,267.3
			c-19.7,13.6-63.8,44.7-106.5,72.5c-21.3,13.9-42.3,26.8-59.5,36.3c-8.6,4.7-16.3,8.5-22.4,11.1c-3.1,1.3-5.7,2.2-7.9,2.8
			c-2.1,0.6-3.7,0.8-4.3,0.8c-1.9,0-6.8-0.5-13.2-1.4c-22.5-3.3-64.7-11.7-101.1-19.3c-18.2-3.8-34.9-7.4-47.1-10
			c-7.1-1.5-12.6-2.7-16-3.5V246.4c1.7-0.5,3.9-1.1,6.5-1.8c9-2.5,22.8-6.1,35.2-9.2c6.2-1.5,12-2.9,16.7-3.9
			c2.3-0.5,4.3-0.9,5.9-1.1c1.5-0.3,2.7-0.3,2.7-0.3c0,0,0.9,0.1,2.2,0.2c4.7,0.7,14.4,3,26.3,6.1c35.6,9.3,91.8,26.1,114.5,33
			c7.9,2.4,15,5.9,19.6,10.3c2.3,2.2,4.1,4.5,5.3,7c1.2,2.5,1.9,5.2,1.9,8.6c0,6.7-2.7,12.8-7.1,17.2c-4.4,4.4-10.3,7-17,7.1
			l-22.1-2.2l-75.6-9.7c-4.7-0.6-9,2.7-9.6,7.4c-0.6,4.7,2.7,9,7.4,9.6l75.8,9.7l23.5,2.3h0.4c22.9,0,41.4-18.6,41.5-41.5
			c0-5.8-1.3-11.2-3.5-15.9c-3.4-7.1-8.9-12.7-15.1-16.9c-6.2-4.2-13.2-7.2-20.4-9.4c-4-1.2-9-2.7-14.7-4.5l46.6-28.5
			c3-1.5,6.1-2.3,9.4-2.3c5.5,0,10.6,2.1,14.3,5.6l-23,13.6c-4.1,2.4-5.4,7.7-3,11.8c2.4,4.1,7.7,5.4,11.8,3l53.4-31.7
			c3-1.5,6.1-2.4,9.4-2.4c5.9,0,11.2,2.5,15.1,6.4L380.7,261c-4.1,2.4-5.4,7.7-3,11.8c2.4,4.1,7.7,5.4,11.8,3l67.2-39.9
			c0.7-0.1,1.3-0.3,2-0.5c1.4-0.6,2.5-1.5,3.4-2.6l2.1-1.2c3-1.5,6.1-2.4,9.4-2.4c5.9,0,11.2,2.4,15.1,6.2c3.9,3.9,6.2,9.2,6.2,15.1
			C494.8,257.7,491.5,263.9,486.6,267.3z"/>
	</g>
</g>
<g>
	<g>
		<path class="st0" d="M311.2,139h-61.5c3.8-4.2,7.5-9.4,10.4-15.8c3.7-8.1,6.1-18,6.1-29.5c0-3.2-0.2-6.6-0.6-10.1h31.3
			c4.7,0,8.6-3.8,8.6-8.6c0-4.7-3.8-8.6-8.6-8.6h-33.4c-0.3-2.2-0.5-4.4-0.8-6.7c-0.7-6.1-1.3-12.1-1.5-15.1l0-0.1l0-1.3
			c0-7.1,3.1-13.5,8.2-18.3c5.1-4.8,12.3-7.8,19.8-7.8c5.1,0,9.8,1.4,14,3.8c4.1,2.4,9.3,1,11.7-3.1s1-9.3-3.1-11.7
			C305.2,2.3,297.5,0,289.2,0c-12.1,0-23.2,4.7-31.5,12.4c-8.3,7.7-13.7,18.6-13.7,30.9c0,0.8,0,1.6,0.1,2.4l0-0.1
			c0.3,4.8,1.2,13.1,2.1,20.8h-23.1c-4.7,0-8.6,3.8-8.6,8.6c0,4.7,3.9,8.6,8.6,8.6h25.2c0.5,3.6,0.7,6.9,0.7,10.1
			c0,9.2-1.9,16.5-4.6,22.4c-4,8.8-10.1,14.7-15.3,18.5c-2.6,1.9-4.9,3.2-6.5,4c-0.8,0.4-1.4,0.7-1.8,0.8l-0.4,0.2h0
			c-3.9,1.4-6.3,5.4-5.5,9.5c0.7,4.1,4.3,7.1,8.5,7.1h87.8c4.7,0,8.6-3.8,8.6-8.6C319.8,142.8,315.9,139,311.2,139z"/>
	</g>
</g>
</svg>
