<svg xmlns="http://www.w3.org/2000/svg" xmlns:xlink="http://www.w3.org/1999/xlink" width="199.992" height="83.419" viewBox="0 0 199.992 83.419"><defs><clipPath id="a"><rect width="199.992" height="83.419" fill="none"/></clipPath></defs><g clip-path="url(#a)"><path d="M.032,164.037c-.217,4,.675,7.826,3.453,10.869,2.58,2.827,6.247,4.449,9.936,5.537a47.456,47.456,0,0,0,20.33,1.386c6.253-.931,12.962-2.666,17.827-6.871a15.848,15.848,0,0,0,5.482-9.362c1.6-10.427-8.89-14.332-17.547-13.7-3.179.232-6.368.708-9.541.756-4.009.06-7.938-.632-11.939-.671a24.65,24.65,0,0,0-9.785,1.629C3.385,155.621.311,158.9.032,164.037" transform="translate(0 -98.93)" fill="#191847"/><path d="M61.122,90.521a17.322,17.322,0,0,1-13.336,11.445,54.076,54.076,0,0,1-13.715.56c-4.362-.285-8.54-.872-12.17-3.511a16.47,16.47,0,0,1-5.992-9.358,11.939,11.939,0,0,1,.235-7.005c1.563-4.2,5.9-6.875,10.319-7.861S35.47,75.773,40,75.856c3.846.071,7.741-1.659,11.486-.792s7.419,2.93,9.176,6.316a11.242,11.242,0,0,1,.994,6.878,15.274,15.274,0,0,1-.531,2.262" transform="translate(-10.041 -48.552)" fill="#533bc9"/><path d="M64.034,25.878a14.481,14.481,0,0,1-5.628,4.249c-4.86,2.071-11.057,1.907-16.035.32-3.964-1.264-7.906-4.024-9.411-8A11.257,11.257,0,0,1,38.436,8.475c4.876-2.562,11.553-2.256,16.654-1.4,5.339.9,10.509,3.59,11.51,9.315a11.766,11.766,0,0,1-1.085,7.162,12.832,12.832,0,0,1-1.48,2.327" transform="translate(-20.896 -4.209)" fill="#a1b6d4"/><path d="M218.775,24.3a8.138,8.138,0,0,0,6.62-3.171l3.521,3.589a13.38,13.38,0,0,1-19.243,1.115,11.947,11.947,0,0,1-3.679-8.972,12.057,12.057,0,0,1,3.75-9.042A12.7,12.7,0,0,1,218.916,4.2a13.06,13.06,0,0,1,10.141,4.564L225.641,12.6a8.032,8.032,0,0,0-6.478-3.205,7.594,7.594,0,0,0-5.3,2,6.942,6.942,0,0,0-2.2,5.4,7.327,7.327,0,0,0,2.077,5.453,6.893,6.893,0,0,0,5.035,2.056" transform="translate(-133.463 -2.737)" fill="#191847"/><path d="M286.175,17.249v10.1h-5.282V1.5h5.282v9.2a7.411,7.411,0,0,1,5.37-2.4,6.741,6.741,0,0,1,5.017,2.091A7.636,7.636,0,0,1,298.6,15.96V27.353h-5.282V17.109q0-4.32-3.2-4.32a3.863,3.863,0,0,0-2.764,1.132,4.4,4.4,0,0,0-1.18,3.327" transform="translate(-181.99 -0.977)" fill="#191847"/><path d="M343.391,5.244a2.945,2.945,0,0,1-.9-2.178,2.946,2.946,0,0,1,.9-2.178,3.17,3.17,0,0,1,4.4,0,2.946,2.946,0,0,1,.9,2.178,2.945,2.945,0,0,1-.9,2.178,3.17,3.17,0,0,1-4.4,0m4.841,21.132h-5.282V7.63h5.282Z" transform="translate(-221.9)" fill="#191847"/><rect width="5.282" height="25.853" transform="translate(130.98 0.523)" fill="#191847"/><path d="M405.835,27.632a8.036,8.036,0,0,1-6-2.822,9.858,9.858,0,0,1-2.641-7,9.455,9.455,0,0,1,2.57-6.847,8.106,8.106,0,0,1,6.021-2.665,7.263,7.263,0,0,1,5.634,2.4V1.5H416.7V27.353h-5.282V24.879a6.88,6.88,0,0,1-5.581,2.753m-3.327-9.616a5.17,5.17,0,0,0,1.373,3.711,4.288,4.288,0,0,0,3.2,1.446,4.021,4.021,0,0,0,3.116-1.446A5.4,5.4,0,0,0,411.487,18a5.671,5.671,0,0,0-1.285-3.8,3.982,3.982,0,0,0-3.152-1.516,4.114,4.114,0,0,0-3.2,1.533,5.569,5.569,0,0,0-1.338,3.8" transform="translate(-257.339 -0.977)" fill="#191847"/><path d="M224.968,111.155H214.194V86.8h9.578a13.961,13.961,0,0,1,4.313.592,5.9,5.9,0,0,1,4.384,5.854A4.961,4.961,0,0,1,230.6,97.5a6.612,6.612,0,0,1-.88.61q-.247.122-.88.4a6.477,6.477,0,0,1,3.645,2.038,5.642,5.642,0,0,1,1.355,3.85,6.511,6.511,0,0,1-1.761,4.495q-2.042,2.266-7.112,2.265M219.687,96.66h2.606a8.9,8.9,0,0,0,3.4-.488,2.053,2.053,0,0,0,1.109-2.108,2.173,2.173,0,0,0-1.021-2.143,8.173,8.173,0,0,0-3.451-.523h-2.641Zm0,9.9h3.768a8.4,8.4,0,0,0,3.539-.575,2.271,2.271,0,0,0,1.18-2.265,2.175,2.175,0,0,0-1.25-2.23,10.819,10.819,0,0,0-4-.54h-3.239Z" transform="translate(-138.776 -56.557)" fill="#191847"/><path d="M295.058,118.341a10.649,10.649,0,0,1-7.517,3,10.034,10.034,0,0,1-7.13-2.631,9.19,9.19,0,0,1-2.817-7.056,9.05,9.05,0,0,1,2.87-7.038A9.735,9.735,0,0,1,287.242,102a9.864,9.864,0,0,1,6.637,2.334,7.992,7.992,0,0,1,2.729,6.411v2.787h-13.8a3.719,3.719,0,0,0,1.62,2.509,5.219,5.219,0,0,0,3.1.976,6.109,6.109,0,0,0,4.577-1.847Zm-5.07-11.115a4.028,4.028,0,0,0-2.658-.906,4.791,4.791,0,0,0-2.87.941,3.591,3.591,0,0,0-1.514,2.543h8.31a3.7,3.7,0,0,0-1.268-2.578" transform="translate(-179.852 -66.461)" fill="#191847"/><path d="M346.675,110.606v10.453h-5.282V102.314h5.282V104.4a7.429,7.429,0,0,1,5.387-2.4,6.705,6.705,0,0,1,5.017,2.091,7.674,7.674,0,0,1,2.025,5.575v11.393h-5.282V110.467q0-4.32-3.2-4.32a3.864,3.864,0,0,0-2.764,1.132,4.4,4.4,0,0,0-1.18,3.327" transform="translate(-221.187 -66.461)" fill="#191847"/><path d="M418.757,118.341a10.648,10.648,0,0,1-7.517,3,10.034,10.034,0,0,1-7.13-2.631,9.189,9.189,0,0,1-2.817-7.056,9.051,9.051,0,0,1,2.869-7.038A9.736,9.736,0,0,1,410.94,102a9.864,9.864,0,0,1,6.638,2.334,7.993,7.993,0,0,1,2.729,6.411v2.787H406.5a3.72,3.72,0,0,0,1.619,2.509,5.221,5.221,0,0,0,3.1.976,6.109,6.109,0,0,0,4.577-1.847Zm-5.07-11.115a4.029,4.029,0,0,0-2.659-.906,4.791,4.791,0,0,0-2.869.941,3.589,3.589,0,0,0-1.514,2.543h8.31a3.7,3.7,0,0,0-1.268-2.578" transform="translate(-259.996 -66.461)" fill="#191847"/><path d="M468.629,87.55V88.8h4.577v3.763h-4.577v14.808h-5.317V92.568h-2.218V88.8h2.218v-1.15a6.4,6.4,0,0,1,1.884-4.86A6.526,6.526,0,0,1,469.879,81a7.37,7.37,0,0,1,5.088,2.091l-1.9,3.519a3.39,3.39,0,0,0-2.57-1.324,1.738,1.738,0,0,0-1.338.575,2.417,2.417,0,0,0-.528,1.69" transform="translate(-298.741 -52.778)" fill="#191847"/><path d="M503.391,86.244a3.09,3.09,0,0,1,0-4.355,3.17,3.17,0,0,1,4.4,0,3.09,3.09,0,0,1,0,4.355,3.17,3.17,0,0,1-4.4,0m4.841,21.132h-5.282V88.63h5.282Z" transform="translate(-325.563 -52.778)" fill="#191847"/><path d="M536.027,96.173v8.4a2.393,2.393,0,0,0,.564,1.69,1.761,1.761,0,0,0,1.338.61,3.059,3.059,0,0,0,2.5-1.324L542.4,109.2a7.666,7.666,0,0,1-5.194,2.23,6.471,6.471,0,0,1-4.613-1.777,6.339,6.339,0,0,1-1.884-4.843V96.173h-2.218V92.41h2.218V86.8h5.317v5.61H540.6v3.763Z" transform="translate(-342.408 -56.557)" fill="#191847"/><path d="M214.194,192.155V167.8h5.493v19.512H230.18v4.843Z" transform="translate(-138.776 -109.335)" fill="#191847"/><path d="M284.729,192.686a9.221,9.221,0,0,1-2.852,6.864,10.6,10.6,0,0,1-14.331,0,9.706,9.706,0,0,1,0-13.745,10.555,10.555,0,0,1,14.331,0,9.278,9.278,0,0,1,2.852,6.881m-14.718,0a5.338,5.338,0,0,0,1.32,3.746,4.674,4.674,0,0,0,6.76,0,5.338,5.338,0,0,0,1.32-3.746,5.4,5.4,0,0,0-1.32-3.763,4.636,4.636,0,0,0-6.76,0,5.4,5.4,0,0,0-1.32,3.763" transform="translate(-171.494 -119.239)" fill="#191847"/><path d="M345.906,202.059h-4.965v-2.265a6.245,6.245,0,0,1-5.053,2.543,7.561,7.561,0,0,1-5.053-1.725,5.716,5.716,0,0,1-2.042-4.6,4.846,4.846,0,0,1,2.113-4.3,10.187,10.187,0,0,1,5.774-1.429h3.944v-.1q0-3-3.2-3a8.745,8.745,0,0,0-2.9.54,9.468,9.468,0,0,0-2.588,1.341l-2.359-3.38A14.232,14.232,0,0,1,338.09,183a8.881,8.881,0,0,1,5.634,1.707q2.183,1.707,2.183,5.4Zm-5.317-7.143v-.906h-3.31q-3.169,0-3.169,1.951a1.787,1.787,0,0,0,.757,1.55,3.692,3.692,0,0,0,2.165.54,3.872,3.872,0,0,0,2.482-.854,2.767,2.767,0,0,0,1.074-2.282" transform="translate(-213.024 -119.239)" fill="#191847"/><path d="M395.375,191.606v10.453h-5.282V183.314h5.282V185.4a7.429,7.429,0,0,1,5.388-2.4,6.706,6.706,0,0,1,5.017,2.091,7.675,7.675,0,0,1,2.025,5.575v11.393h-5.282V191.467q0-4.32-3.2-4.32a3.863,3.863,0,0,0-2.764,1.132,4.4,4.4,0,0,0-1.18,3.327" transform="translate(-252.74 -119.239)" fill="#191847"/><path d="M464.4,196.223a5.435,5.435,0,0,1-2.06,4.442,8.027,8.027,0,0,1-5.229,1.672,14.133,14.133,0,0,1-4.4-.749,13.014,13.014,0,0,1-4.119-2.212l2.324-3.275a10.186,10.186,0,0,0,6.3,2.265,2.876,2.876,0,0,0,1.619-.4,1.225,1.225,0,0,0,.6-1.063,1.534,1.534,0,0,0-.827-1.219,9.408,9.408,0,0,0-2.394-1.045q-1.567-.488-2.394-.836a13.471,13.471,0,0,1-1.883-1.01,4.315,4.315,0,0,1-2.148-3.92,5.119,5.119,0,0,1,2.113-4.233A8.653,8.653,0,0,1,457.36,183a12,12,0,0,1,6.69,2.23l-1.972,3.484a8.708,8.708,0,0,0-4.912-1.672q-2.448,0-2.447,1.324a1.274,1.274,0,0,0,.775,1.15,15.757,15.757,0,0,0,2.57.976q1.8.558,2.553.854a12.909,12.909,0,0,1,1.813.923,4.246,4.246,0,0,1,1.972,3.955" transform="translate(-290.642 -119.239)" fill="#191847"/></g></svg>