<svg id="Component_64_11" data-name="Component 64 – 11" xmlns="http://www.w3.org/2000/svg" xmlns:xlink="http://www.w3.org/1999/xlink" width="122" height="50.422" viewBox="0 0 122 50.422">
  <defs>
    <clipPath id="clip-path">
      <rect id="Rectangle_1108" data-name="Rectangle 1108" width="122" height="50.422" fill="none"/>
    </clipPath>
  </defs>
  <g id="Group_8" data-name="Group 8" clip-path="url(#clip-path)">
    <path id="Path_7" data-name="Path 7" d="M.02,159.209a8.641,8.641,0,0,0,2.106,6.57,13.044,13.044,0,0,0,6.061,3.347,29.207,29.207,0,0,0,12.4.838c3.815-.562,7.907-1.612,10.875-4.153a9.561,9.561,0,0,0,3.344-5.659c.974-6.3-5.423-8.663-10.7-8.281-1.939.14-3.885.428-5.82.457-2.446.036-4.842-.382-7.283-.406a15.161,15.161,0,0,0-5.969.984C2.065,154.122.19,156.1.02,159.209" transform="translate(0 -119.855)" fill="#191847"/>
    <path id="Path_8" data-name="Path 8" d="M43.33,84.19a10.538,10.538,0,0,1-8.135,6.918,33.286,33.286,0,0,1-8.367.339c-2.661-.172-5.21-.527-7.424-2.122a9.947,9.947,0,0,1-3.655-5.656,7.154,7.154,0,0,1,.143-4.234c.953-2.542,3.6-4.155,6.295-4.752s5.5.594,8.257.644c2.346.043,4.722-1,7.007-.479a8.246,8.246,0,0,1,5.6,3.818,6.74,6.74,0,0,1,.606,4.158,9.161,9.161,0,0,1-.324,1.367" transform="translate(-12.169 -58.822)" fill="#533bc9"/>
    <path id="Path_9" data-name="Path 9" d="M51.64,18.2a8.826,8.826,0,0,1-3.433,2.569,14.841,14.841,0,0,1-9.782.194,8.871,8.871,0,0,1-5.741-4.838,6.732,6.732,0,0,1,.175-5.163,6.877,6.877,0,0,1,3.165-3.28C39,6.129,43.072,6.314,46.184,6.831c3.257.541,6.411,2.17,7.022,5.63a7.054,7.054,0,0,1-.662,4.329,7.747,7.747,0,0,1-.9,1.407" transform="translate(-25.325 -5.099)" fill="#a1b6d4"/>
    <path id="Path_10" data-name="Path 10" d="M213.791,16.352a4.981,4.981,0,0,0,4.038-1.916l2.148,2.169a8.214,8.214,0,0,1-11.739.674,7.188,7.188,0,0,1-2.245-5.423,7.255,7.255,0,0,1,2.288-5.465,7.786,7.786,0,0,1,5.6-2.19,8,8,0,0,1,6.186,2.759l-2.083,2.317a4.916,4.916,0,0,0-3.952-1.938,4.657,4.657,0,0,0-3.233,1.211,4.177,4.177,0,0,0-1.342,3.264,4.407,4.407,0,0,0,1.267,3.3,4.225,4.225,0,0,0,3.072,1.243" transform="translate(-161.748 -3.315)" fill="#191847"/>
    <path id="Path_11" data-name="Path 11" d="M284.115,11.019v6.107h-3.222V1.5h3.222V7.06a4.54,4.54,0,0,1,3.276-1.453,4.131,4.131,0,0,1,3.061,1.264,4.592,4.592,0,0,1,1.246,3.37v6.887h-3.222V10.935q0-2.611-1.955-2.611a2.368,2.368,0,0,0-1.686.684,2.646,2.646,0,0,0-.72,2.011" transform="translate(-220.56 -1.184)" fill="#191847"/>
    <path id="Path_12" data-name="Path 12" d="M343.041,3.17a1.772,1.772,0,0,1-.548-1.316,1.772,1.772,0,0,1,.548-1.316,1.946,1.946,0,0,1,2.685,0,1.772,1.772,0,0,1,.548,1.316,1.772,1.772,0,0,1-.548,1.316,1.946,1.946,0,0,1-2.685,0m2.953,12.773h-3.222V4.612h3.222Z" transform="translate(-268.928)" fill="#191847"/>
    <rect id="Rectangle_1107" data-name="Rectangle 1107" width="3.222" height="15.627" transform="translate(79.901 0.316)" fill="#191847"/>
    <path id="Path_13" data-name="Path 13" d="M402.464,17.3a4.921,4.921,0,0,1-3.662-1.706,5.928,5.928,0,0,1-1.611-4.233,5.686,5.686,0,0,1,1.568-4.138,4.966,4.966,0,0,1,3.673-1.611,4.45,4.45,0,0,1,3.437,1.453V1.5h3.222V17.127h-3.222v-1.5a4.211,4.211,0,0,1-3.4,1.664m-2.03-5.813a3.109,3.109,0,0,0,.837,2.243,2.627,2.627,0,0,0,1.955.874,2.462,2.462,0,0,0,1.9-.874,3.248,3.248,0,0,0,.784-2.253,3.408,3.408,0,0,0-.784-2.3,2.437,2.437,0,0,0-1.923-.916,2.518,2.518,0,0,0-1.954.927,3.348,3.348,0,0,0-.816,2.3" transform="translate(-311.878 -1.184)" fill="#191847"/>
    <path id="Path_14" data-name="Path 14" d="M220.767,101.521h-6.573V86.8h5.843a8.589,8.589,0,0,1,2.631.358,3.574,3.574,0,0,1,2.674,3.538,2.987,2.987,0,0,1-1.139,2.569,4.034,4.034,0,0,1-.537.369q-.15.074-.537.242a3.96,3.96,0,0,1,2.223,1.232,3.392,3.392,0,0,1,.827,2.327,3.916,3.916,0,0,1-1.074,2.717q-1.246,1.369-4.339,1.369m-3.222-8.761h1.589a5.477,5.477,0,0,0,2.073-.295,1.239,1.239,0,0,0,.676-1.274,1.31,1.31,0,0,0-.623-1.3,5.027,5.027,0,0,0-2.105-.316h-1.611Zm0,5.981h2.3A5.169,5.169,0,0,0,222,98.394a1.37,1.37,0,0,0,.72-1.369,1.313,1.313,0,0,0-.763-1.348,6.656,6.656,0,0,0-2.438-.326h-1.976Z" transform="translate(-168.187 -68.52)" fill="#191847"/>
    <path id="Path_15" data-name="Path 15" d="M288.248,111.877a6.528,6.528,0,0,1-4.586,1.811,6.153,6.153,0,0,1-4.349-1.59,5.529,5.529,0,0,1-1.718-4.265,5.446,5.446,0,0,1,1.751-4.254,5.969,5.969,0,0,1,4.135-1.58,6.051,6.051,0,0,1,4.049,1.411,4.81,4.81,0,0,1,1.665,3.875v1.685h-8.42a2.246,2.246,0,0,0,.988,1.516,3.2,3.2,0,0,0,1.89.59,3.744,3.744,0,0,0,2.792-1.116Zm-3.093-6.718a2.471,2.471,0,0,0-1.622-.548,2.941,2.941,0,0,0-1.751.569,2.167,2.167,0,0,0-.924,1.537h5.069a2.229,2.229,0,0,0-.773-1.558" transform="translate(-217.969 -80.518)" fill="#191847"/>
    <path id="Path_16" data-name="Path 16" d="M344.615,107.2v6.318h-3.222V102.19h3.222v1.264A4.551,4.551,0,0,1,347.9,102a4.109,4.109,0,0,1,3.061,1.264,4.614,4.614,0,0,1,1.235,3.37v6.887h-3.222v-6.4q0-2.611-1.955-2.611a2.368,2.368,0,0,0-1.686.684,2.646,2.646,0,0,0-.72,2.011" transform="translate(-268.065 -80.518)" fill="#191847"/>
    <path id="Path_17" data-name="Path 17" d="M411.947,111.877a6.528,6.528,0,0,1-4.586,1.811,6.154,6.154,0,0,1-4.35-1.59,5.528,5.528,0,0,1-1.718-4.265,5.446,5.446,0,0,1,1.75-4.254,5.97,5.97,0,0,1,4.135-1.58,6.052,6.052,0,0,1,4.049,1.411,4.811,4.811,0,0,1,1.665,3.875v1.685h-8.42a2.247,2.247,0,0,0,.988,1.516,3.205,3.205,0,0,0,1.89.59,3.745,3.745,0,0,0,2.792-1.116Zm-3.093-6.718a2.472,2.472,0,0,0-1.622-.548,2.941,2.941,0,0,0-1.75.569,2.166,2.166,0,0,0-.924,1.537h5.069a2.229,2.229,0,0,0-.773-1.558" transform="translate(-315.099 -80.518)" fill="#191847"/>
    <path id="Path_18" data-name="Path 18" d="M465.69,84.959v.758h2.792v2.275H465.69v8.951h-3.243V87.992h-1.353V85.718h1.353v-.695a3.848,3.848,0,0,1,1.149-2.938A4,4,0,0,1,466.453,81a4.518,4.518,0,0,1,3.1,1.264l-1.16,2.127a2.075,2.075,0,0,0-1.568-.8,1.065,1.065,0,0,0-.816.347,1.452,1.452,0,0,0-.322,1.021" transform="translate(-362.055 -63.941)" fill="#191847"/>
    <path id="Path_19" data-name="Path 19" d="M503.041,84.17a1.855,1.855,0,0,1,0-2.633,1.946,1.946,0,0,1,2.685,0,1.856,1.856,0,0,1,0,2.633,1.946,1.946,0,0,1-2.685,0m2.953,12.773h-3.222V85.612h3.222Z" transform="translate(-394.562 -63.941)" fill="#191847"/>
    <path id="Path_20" data-name="Path 20" d="M533.088,92.465v5.076a1.438,1.438,0,0,0,.344,1.021,1.078,1.078,0,0,0,.816.369,1.871,1.871,0,0,0,1.525-.8l1.2,2.211a4.7,4.7,0,0,1-3.168,1.348,3.968,3.968,0,0,1-2.814-1.074,3.813,3.813,0,0,1-1.149-2.927V92.465h-1.353V90.191h1.353V86.8h3.243v3.391h2.792v2.275Z" transform="translate(-414.976 -68.52)" fill="#191847"/>
    <path id="Path_21" data-name="Path 21" d="M214.194,182.521V167.8h3.351v11.794h6.4v2.927Z" transform="translate(-168.187 -132.461)" fill="#191847"/>
    <path id="Path_22" data-name="Path 22" d="M276.916,188.855a5.548,5.548,0,0,1-1.74,4.149,6.512,6.512,0,0,1-8.742,0,5.829,5.829,0,0,1,0-8.308,6.483,6.483,0,0,1,8.742,0,5.583,5.583,0,0,1,1.74,4.159m-8.978,0a3.209,3.209,0,0,0,.805,2.264,2.869,2.869,0,0,0,4.124,0,3.209,3.209,0,0,0,.805-2.264,3.248,3.248,0,0,0-.805-2.275,2.846,2.846,0,0,0-4.124,0,3.248,3.248,0,0,0-.805,2.275" transform="translate(-207.84 -144.46)" fill="#191847"/>
    <path id="Path_23" data-name="Path 23" d="M339.233,194.52H336.2v-1.369a3.822,3.822,0,0,1-3.082,1.537,4.639,4.639,0,0,1-3.082-1.042,3.441,3.441,0,0,1-1.246-2.78,2.921,2.921,0,0,1,1.289-2.6,6.259,6.259,0,0,1,3.523-.863h2.406v-.063q0-1.811-1.955-1.811a5.378,5.378,0,0,0-1.772.326,5.8,5.8,0,0,0-1.579.811l-1.439-2.043a8.736,8.736,0,0,1,5.2-1.622,5.452,5.452,0,0,1,3.437,1.032,3.872,3.872,0,0,1,1.332,3.264ZM335.99,190.2v-.548h-2.019q-1.933,0-1.933,1.179a1.077,1.077,0,0,0,.462.937,2.268,2.268,0,0,0,1.321.326,2.376,2.376,0,0,0,1.514-.516,1.667,1.667,0,0,0,.655-1.379" transform="translate(-258.172 -144.46)" fill="#191847"/>
    <path id="Path_24" data-name="Path 24" d="M393.315,188.2v6.318h-3.222V183.19h3.222v1.264A4.551,4.551,0,0,1,396.6,183a4.109,4.109,0,0,1,3.061,1.264,4.615,4.615,0,0,1,1.235,3.37v6.887h-3.222v-6.4q0-2.611-1.955-2.611a2.368,2.368,0,0,0-1.686.684,2.646,2.646,0,0,0-.72,2.011" transform="translate(-306.304 -144.46)" fill="#191847"/>
    <path id="Path_25" data-name="Path 25" d="M458.237,190.992a3.273,3.273,0,0,1-1.257,2.685,4.927,4.927,0,0,1-3.19,1.011,8.7,8.7,0,0,1-2.685-.453,7.962,7.962,0,0,1-2.513-1.337l1.417-1.98a6.249,6.249,0,0,0,3.845,1.369,1.767,1.767,0,0,0,.988-.242.739.739,0,0,0,.365-.642.927.927,0,0,0-.5-.737,5.767,5.767,0,0,0-1.461-.632q-.956-.295-1.461-.505a8.244,8.244,0,0,1-1.149-.611,2.6,2.6,0,0,1-1.31-2.369,3.084,3.084,0,0,1,1.289-2.559,5.312,5.312,0,0,1,3.329-.99,7.362,7.362,0,0,1,4.081,1.348l-1.2,2.106a5.345,5.345,0,0,0-3-1.011q-1.493,0-1.493.8a.77.77,0,0,0,.473.7,9.659,9.659,0,0,0,1.568.59q1.1.337,1.557.516a7.9,7.9,0,0,1,1.106.558,2.56,2.56,0,0,1,1.2,2.39" transform="translate(-352.239 -144.46)" fill="#191847"/>
  </g>
</svg>
