<svg xmlns="http://www.w3.org/2000/svg" xmlns:xlink="http://www.w3.org/1999/xlink" width="362.285" height="29.96" viewBox="0 0 362.285 29.96"><defs><clipPath id="a"><rect width="362.285" height="29.96" fill="none"/></clipPath></defs><g clip-path="url(#a)"><path d="M116.036,29.863a7.938,7.938,0,0,0,6.442-3.065l3.427,3.469a13.081,13.081,0,0,1-18.726,1.078,11.507,11.507,0,0,1-3.581-8.672,11.616,11.616,0,0,1,3.65-8.739,12.4,12.4,0,0,1,8.926-3.5,12.747,12.747,0,0,1,9.868,4.412l-3.324,3.7a7.837,7.837,0,0,0-6.3-3.1,7.419,7.419,0,0,0-5.157,1.936,6.689,6.689,0,0,0-2.142,5.22,7.056,7.056,0,0,0,2.022,5.271,6.731,6.731,0,0,0,4.9,1.987" transform="translate(-68.1 -6.918)" fill="#191847"/><path d="M183.637,22.952v9.767H178.5V7.73h5.14v8.891a7.233,7.233,0,0,1,5.226-2.324,6.582,6.582,0,0,1,4.883,2.021,7.354,7.354,0,0,1,1.987,5.388V32.719h-5.14v-9.9q0-4.176-3.118-4.176a3.774,3.774,0,0,0-2.69,1.095,4.237,4.237,0,0,0-1.148,3.216" transform="translate(-117.334 -5.127)" fill="#191847"/><path d="M240.97,11.3a2.837,2.837,0,0,1-.874-2.1,2.838,2.838,0,0,1,.874-2.1,3.1,3.1,0,0,1,4.283,0,2.838,2.838,0,0,1,.874,2.1,2.837,2.837,0,0,1-.874,2.1,3.1,3.1,0,0,1-4.283,0m4.712,20.426h-5.14V13.605h5.14Z" transform="translate(-157.826 -4.132)" fill="#191847"/><rect width="5.14" height="24.989" transform="translate(92.379 2.603)" fill="#191847"/><path d="M303.207,32.99a7.842,7.842,0,0,1-5.842-2.728,9.492,9.492,0,0,1-2.57-6.769,9.1,9.1,0,0,1,2.5-6.618,7.912,7.912,0,0,1,5.859-2.576,7.09,7.09,0,0,1,5.483,2.324V7.731h5.14V32.72h-5.14V30.329a6.711,6.711,0,0,1-5.431,2.661m-3.238-9.3a4.977,4.977,0,0,0,1.336,3.587,4.185,4.185,0,0,0,3.118,1.4,3.923,3.923,0,0,0,3.033-1.4,5.2,5.2,0,0,0,1.251-3.6,5.457,5.457,0,0,0-1.251-3.671,3.884,3.884,0,0,0-3.067-1.465,4.015,4.015,0,0,0-3.118,1.482,5.361,5.361,0,0,0-1.3,3.671" transform="translate(-193.782 -5.127)" fill="#191847"/><path d="M400.778,35.571H390.293V12.03h9.32a13.671,13.671,0,0,1,4.2.573,5.712,5.712,0,0,1,4.266,5.658,4.782,4.782,0,0,1-1.816,4.109,6.487,6.487,0,0,1-.857.589q-.24.118-.857.387a6.313,6.313,0,0,1,3.546,1.97,5.43,5.43,0,0,1,1.319,3.721,6.269,6.269,0,0,1-1.713,4.344q-1.988,2.19-6.921,2.189m-5.14-14.01h2.536a8.717,8.717,0,0,0,3.307-.471,1.981,1.981,0,0,0,1.079-2.038,2.1,2.1,0,0,0-.993-2.071,8,8,0,0,0-3.358-.505h-2.57Zm0,9.565H399.3a8.229,8.229,0,0,0,3.444-.556,2.192,2.192,0,0,0,1.148-2.189,2.1,2.1,0,0,0-1.216-2.155,10.593,10.593,0,0,0-3.889-.522h-3.152Z" transform="translate(-256.557 -7.979)" fill="#191847"/><path d="M470.688,43.025a10.4,10.4,0,0,1-7.316,2.9,9.8,9.8,0,0,1-6.939-2.543,8.852,8.852,0,0,1-2.741-6.82,8.718,8.718,0,0,1,2.793-6.8,9.509,9.509,0,0,1,6.6-2.526,9.638,9.638,0,0,1,6.459,2.256,7.7,7.7,0,0,1,2.656,6.2v2.694H458.764A3.593,3.593,0,0,0,460.34,40.8a5.1,5.1,0,0,0,3.015.943,5.966,5.966,0,0,0,4.455-1.785Zm-4.934-10.743a3.937,3.937,0,0,0-2.587-.876,4.685,4.685,0,0,0-2.793.909,3.468,3.468,0,0,0-1.473,2.458h8.087a3.569,3.569,0,0,0-1.234-2.492" transform="translate(-298.232 -18.059)" fill="#191847"/><path d="M522.632,35.548v10.1h-5.14V27.533h5.14v2.021a7.252,7.252,0,0,1,5.242-2.324,6.547,6.547,0,0,1,4.883,2.021,7.387,7.387,0,0,1,1.97,5.388V45.652h-5.14V35.414q0-4.176-3.118-4.176a3.772,3.772,0,0,0-2.689,1.095,4.237,4.237,0,0,0-1.148,3.216" transform="translate(-340.17 -18.059)" fill="#191847"/><path d="M594.386,43.025a10.4,10.4,0,0,1-7.315,2.9,9.8,9.8,0,0,1-6.939-2.543,8.852,8.852,0,0,1-2.741-6.82,8.718,8.718,0,0,1,2.793-6.8,9.51,9.51,0,0,1,6.6-2.526,9.639,9.639,0,0,1,6.459,2.256,7.7,7.7,0,0,1,2.656,6.2v2.694H582.462a3.593,3.593,0,0,0,1.576,2.425,5.1,5.1,0,0,0,3.015.943,5.966,5.966,0,0,0,4.455-1.785Zm-4.934-10.743a3.938,3.938,0,0,0-2.587-.876,4.684,4.684,0,0,0-2.793.909,3.466,3.466,0,0,0-1.473,2.458h8.087a3.567,3.567,0,0,0-1.233-2.492" transform="translate(-379.545 -18.059)" fill="#191847"/><path d="M644.525,12.561v1.212h4.454v3.637h-4.454V31.724H639.35V17.411h-2.158V13.774h2.158V12.663a6.159,6.159,0,0,1,1.833-4.7,6.374,6.374,0,0,1,4.557-1.734,7.2,7.2,0,0,1,4.951,2.021l-1.85,3.4a3.307,3.307,0,0,0-2.5-1.28,1.7,1.7,0,0,0-1.3.556,2.326,2.326,0,0,0-.514,1.633" transform="translate(-418.854 -4.132)" fill="#191847"/><path d="M679.465,11.3a2.835,2.835,0,0,1-.874-2.1,2.837,2.837,0,0,1,.874-2.1,3.1,3.1,0,0,1,4.283,0,2.838,2.838,0,0,1,.873,2.1,2.836,2.836,0,0,1-.873,2.1,3.1,3.1,0,0,1-4.283,0m4.711,20.426h-5.14V13.605h5.14Z" transform="translate(-446.068 -4.132)" fill="#191847"/><path d="M711.923,21.089v8.116a2.3,2.3,0,0,0,.548,1.633,1.718,1.718,0,0,0,1.3.589,2.984,2.984,0,0,0,2.433-1.28l1.919,3.536a7.485,7.485,0,0,1-5.054,2.155,6.32,6.32,0,0,1-4.489-1.718,6.1,6.1,0,0,1-1.834-4.681V21.089H704.59V17.452h2.158V12.03h5.174v5.422h4.455v3.637Z" transform="translate(-463.158 -7.979)" fill="#191847"/><path d="M777.988,35.571V12.03h5.345V30.89h10.211v4.681Z" transform="translate(-511.406 -7.979)" fill="#191847"/><path d="M847.985,36.592a8.882,8.882,0,0,1-2.776,6.635,10.371,10.371,0,0,1-13.946,0,9.338,9.338,0,0,1,0-13.286,10.323,10.323,0,0,1,13.946,0,8.936,8.936,0,0,1,2.776,6.651m-14.323,0a5.139,5.139,0,0,0,1.285,3.62,4.57,4.57,0,0,0,6.579,0,5.139,5.139,0,0,0,1.285-3.62,5.2,5.2,0,0,0-1.285-3.637,4.532,4.532,0,0,0-6.579,0,5.2,5.2,0,0,0-1.285,3.637" transform="translate(-544.602 -18.059)" fill="#191847"/><path d="M909.24,45.652h-4.832V43.463a6.091,6.091,0,0,1-4.917,2.458,7.391,7.391,0,0,1-4.917-1.667,5.509,5.509,0,0,1-1.987-4.445,4.674,4.674,0,0,1,2.056-4.159,9.968,9.968,0,0,1,5.62-1.381H904.1v-.1q0-2.9-3.119-2.9a8.561,8.561,0,0,0-2.827.522,9.239,9.239,0,0,0-2.519,1.3l-2.3-3.267a13.914,13.914,0,0,1,8.292-2.593,8.683,8.683,0,0,1,5.483,1.65q2.124,1.65,2.125,5.22Zm-5.174-6.9v-.876h-3.221q-3.084,0-3.084,1.886a1.723,1.723,0,0,0,.736,1.5,3.612,3.612,0,0,0,2.107.522,3.786,3.786,0,0,0,2.416-.825,2.667,2.667,0,0,0,1.045-2.206" transform="translate(-586.737 -18.059)" fill="#191847"/><path d="M959.027,35.548v10.1h-5.14V27.533h5.14v2.021a7.252,7.252,0,0,1,5.243-2.324,6.548,6.548,0,0,1,4.883,2.021,7.388,7.388,0,0,1,1.97,5.388V45.652h-5.14V35.414q0-4.176-3.119-4.176a3.772,3.772,0,0,0-2.689,1.095,4.237,4.237,0,0,0-1.148,3.216" transform="translate(-627.032 -18.059)" fill="#191847"/><path d="M1027.771,40.011a5.238,5.238,0,0,1-2,4.294,7.846,7.846,0,0,1-5.088,1.617,13.837,13.837,0,0,1-4.283-.724,12.7,12.7,0,0,1-4.009-2.139l2.261-3.166a9.955,9.955,0,0,0,6.134,2.189,2.812,2.812,0,0,0,1.576-.387,1.182,1.182,0,0,0,.583-1.027,1.483,1.483,0,0,0-.8-1.179,9.2,9.2,0,0,0-2.33-1.01q-1.525-.471-2.33-.808a13.138,13.138,0,0,1-1.833-.977,4.164,4.164,0,0,1-2.091-3.789,4.936,4.936,0,0,1,2.056-4.092,8.46,8.46,0,0,1,5.311-1.583,11.727,11.727,0,0,1,6.51,2.155l-1.919,3.368a8.513,8.513,0,0,0-4.78-1.617q-2.382,0-2.381,1.28a1.231,1.231,0,0,0,.754,1.111,15.4,15.4,0,0,0,2.5.943q1.748.539,2.484.825a12.58,12.58,0,0,1,1.765.892,4.1,4.1,0,0,1,1.919,3.822" transform="translate(-665.486 -18.059)" fill="#191847"/><path d="M.012,60.018a5.285,5.285,0,0,0,1.283,4.012,7.94,7.94,0,0,0,3.693,2.044,17.752,17.752,0,0,0,7.555.512,13.022,13.022,0,0,0,6.625-2.536A5.843,5.843,0,0,0,21.2,60.593c.593-3.848-3.3-5.29-6.521-5.057-1.181.086-2.367.261-3.546.279-1.49.023-2.95-.233-4.437-.248a9.213,9.213,0,0,0-3.637.6A4.3,4.3,0,0,0,.012,60.018" transform="translate(0 -36.817)" fill="#191847"/><path d="M22.873,31.9a6.424,6.424,0,0,1-4.956,4.225,20.231,20.231,0,0,1-5.1.207,8.276,8.276,0,0,1-4.523-1.3A6.077,6.077,0,0,1,6.07,31.578a4.379,4.379,0,0,1,.087-2.586,5.153,5.153,0,0,1,3.835-2.9c1.641-.364,3.348.363,5.03.393,1.429.026,2.877-.612,4.268-.292a5.023,5.023,0,0,1,3.41,2.331,4.123,4.123,0,0,1,.369,2.539,5.617,5.617,0,0,1-.2.835" transform="translate(-3.89 -17.236)" fill="#533bc9"/><path d="M24.127,7.167a5.376,5.376,0,0,1-2.092,1.568,9.018,9.018,0,0,1-5.959.118,5.407,5.407,0,0,1-3.5-2.955,4.12,4.12,0,0,1,.107-3.153,4.2,4.2,0,0,1,1.928-2C16.426-.2,18.907-.089,20.8.227c1.984.33,3.905,1.325,4.277,3.438a4.316,4.316,0,0,1-.4,2.644,4.725,4.725,0,0,1-.55.859" transform="translate(-8.096 0)" fill="#a1b6d4"/></g></svg>