<svg id="Layer_1" data-name="Layer 1" xmlns="http://www.w3.org/2000/svg" viewBox="0 0 599.04 91.12"><defs><style>.cls-1{fill:#be1622;}.cls-2{fill:#103653;}</style></defs><path class="cls-1" d="M27,13a9.56,9.56,0,0,0-3.59-2.78,10.19,10.19,0,0,0-4.27-1,13.21,13.21,0,0,0-2.15.19,5.6,5.6,0,0,0-2,.72,4.77,4.77,0,0,0-1.46,1.37,3.62,3.62,0,0,0-.6,2.15,3.48,3.48,0,0,0,.47,1.87,4.11,4.11,0,0,0,1.37,1.31,11.76,11.76,0,0,0,2.16,1c.83.32,1.76.64,2.8,1q2.25.75,4.68,1.65a17.53,17.53,0,0,1,4.43,2.41,12.43,12.43,0,0,1,3.31,3.71,10.74,10.74,0,0,1,1.31,5.52A14.48,14.48,0,0,1,32,38.69a13.25,13.25,0,0,1-3.78,4.59A16.23,16.23,0,0,1,22.83,46a22.87,22.87,0,0,1-6.3.87,26.05,26.05,0,0,1-9.17-1.65A19.36,19.36,0,0,1,0,40.47l7-7.11a13,13,0,0,0,4.27,3.34A11.67,11.67,0,0,0,16.53,38a11,11,0,0,0,2.31-.25,6,6,0,0,0,2-.81,4.22,4.22,0,0,0,1.34-1.5,4.76,4.76,0,0,0,.5-2.25A3.52,3.52,0,0,0,22,31.11a6.07,6.07,0,0,0-1.78-1.59,14.51,14.51,0,0,0-2.86-1.31c-1.15-.39-2.45-.82-3.9-1.28a37.94,37.94,0,0,1-4.15-1.62,13.83,13.83,0,0,1-3.62-2.4,11.3,11.3,0,0,1-2.56-3.56,12,12,0,0,1-1-5.08A12.51,12.51,0,0,1,3.68,8a13.08,13.08,0,0,1,3.93-4.3A16.9,16.9,0,0,1,13.1,1.2,24.93,24.93,0,0,1,19.28.42a22.81,22.81,0,0,1,7.64,1.37,19.66,19.66,0,0,1,6.83,4.05Z"/><polygon class="cls-1" points="61.08 10.65 61.08 45.71 50.41 45.71 50.41 10.65 37.93 10.65 37.93 1.54 73.56 1.54 73.56 10.65 61.08 10.65"/><path class="cls-1" d="M111.18,23.44a15.27,15.27,0,0,0-.94-5.37,12.73,12.73,0,0,0-2.59-4.27,11.91,11.91,0,0,0-4-2.81,12.6,12.6,0,0,0-5.15-1,12.31,12.31,0,0,0-5.11,1,12.47,12.47,0,0,0-4,2.81,12.26,12.26,0,0,0-2.59,4.27,15.72,15.72,0,0,0-.9,5.37A15.91,15.91,0,0,0,86.84,29a13.17,13.17,0,0,0,2.59,4.33,11.79,11.79,0,0,0,4,2.84,13.22,13.22,0,0,0,10.23,0,12,12,0,0,0,4-2.84A12.75,12.75,0,0,0,110.24,29a15.91,15.91,0,0,0,.94-5.52m11.41,0A24.54,24.54,0,0,1,120.78,33a21.69,21.69,0,0,1-5,7.43,22.27,22.27,0,0,1-7.64,4.77,26.89,26.89,0,0,1-9.61,1.69,26.68,26.68,0,0,1-9.58-1.69,22.43,22.43,0,0,1-7.61-4.77,21.83,21.83,0,0,1-5-7.43,24.54,24.54,0,0,1-1.81-9.57,24.27,24.27,0,0,1,1.81-9.58,21.07,21.07,0,0,1,5-7.27A22.53,22.53,0,0,1,88.93,2a29.06,29.06,0,0,1,19.19,0,22.38,22.38,0,0,1,7.64,4.61,20.94,20.94,0,0,1,5,7.27,24.27,24.27,0,0,1,1.81,9.58"/><path class="cls-1" d="M152.48,15.2a4.74,4.74,0,0,0-.63-2.56,4.36,4.36,0,0,0-1.68-1.56,7.25,7.25,0,0,0-2.4-.74,19.37,19.37,0,0,0-2.78-.19h-4.68V20.57h4.49a16.57,16.57,0,0,0,2.87-.25,7.71,7.71,0,0,0,2.47-.88,4.59,4.59,0,0,0,1.71-1.65,4.9,4.9,0,0,0,.63-2.59m10.67-.06a13.52,13.52,0,0,1-1.44,6.52,11.8,11.8,0,0,1-3.87,4.27,16.88,16.88,0,0,1-5.61,2.37,28.77,28.77,0,0,1-6.62.75h-5.3V45.71H129.64V1.54h16.22a30.3,30.3,0,0,1,6.77.72,15.81,15.81,0,0,1,5.49,2.3,11.26,11.26,0,0,1,3.68,4.18,13.74,13.74,0,0,1,1.35,6.4"/><rect class="cls-1" x="77.57" y="20.13" width="39.82" height="7.9" transform="translate(7.81 69.27) rotate(-40.62)"/><path class="cls-2" d="M173.11,2.9h7.76V39.61h18.54v6.9h-26.3Z"/><path class="cls-2" d="M200.64,24.58a24.46,24.46,0,0,1,1.76-9.46A20.78,20.78,0,0,1,207.26,8a21.6,21.6,0,0,1,7.39-4.56A26.42,26.42,0,0,1,224,1.79a26.86,26.86,0,0,1,9.43,1.6A21.86,21.86,0,0,1,240.86,8a20.47,20.47,0,0,1,4.9,7.17,24.46,24.46,0,0,1,1.75,9.46,24,24,0,0,1-1.75,9.33,21.45,21.45,0,0,1-4.9,7.27,22.28,22.28,0,0,1-7.45,4.74A25.58,25.58,0,0,1,224,47.61a25.16,25.16,0,0,1-9.33-1.69,22,22,0,0,1-7.39-4.74,21.79,21.79,0,0,1-4.86-7.27A24,24,0,0,1,200.64,24.58Zm8.44,0A18.48,18.48,0,0,0,210.16,31a14.8,14.8,0,0,0,3.08,5.08A14.13,14.13,0,0,0,218,39.45a15,15,0,0,0,6.07,1.2,15.15,15.15,0,0,0,6.09-1.2,14.2,14.2,0,0,0,4.78-3.35A15.11,15.11,0,0,0,238,31a18.71,18.71,0,0,0,1.07-6.44A18,18,0,0,0,238,18.3,15.33,15.33,0,0,0,235,13.25a14.12,14.12,0,0,0-4.75-3.39,15,15,0,0,0-6.15-1.23,14.78,14.78,0,0,0-6.13,1.23,14.06,14.06,0,0,0-4.71,3.39,15,15,0,0,0-3.05,5.05A17.81,17.81,0,0,0,209.08,24.58Z"/><path class="cls-2" d="M301.92,2.9h10.29l20.26,32.64h.12V2.9h7.77V46.51H330.5l-20.69-33.7h-.13v33.7h-7.76Z"/><path class="cls-1" d="M378.29,12a9.5,9.5,0,0,0-3.48-2.68,10.47,10.47,0,0,0-4.52-1.07,11.35,11.35,0,0,0-2.71.33,8.41,8.41,0,0,0-2.47,1.05,5.72,5.72,0,0,0-1.81,1.85,5,5,0,0,0-.71,2.74,4.91,4.91,0,0,0,.61,2.53,5.54,5.54,0,0,0,1.7,1.78,11.55,11.55,0,0,0,2.61,1.3c1,.37,2.16.73,3.39,1.1,1.4.46,2.85,1,4.34,1.54a17.1,17.1,0,0,1,4.13,2.28,11.37,11.37,0,0,1,3.08,3.58,10.86,10.86,0,0,1,1.2,5.35,13.67,13.67,0,0,1-1.29,6.13,12.57,12.57,0,0,1-3.45,4.35,14.63,14.63,0,0,1-5.05,2.58,21.06,21.06,0,0,1-6.1.86A22.81,22.81,0,0,1,359.45,46a16,16,0,0,1-6.66-4.65l5.55-5.17a11,11,0,0,0,4.28,3.51A12,12,0,0,0,367.88,41a12.26,12.26,0,0,0,2.78-.33,7.55,7.55,0,0,0,2.55-1.14,6.46,6.46,0,0,0,1.85-2,5.79,5.79,0,0,0,.71-3,4.91,4.91,0,0,0-.8-2.87,7.36,7.36,0,0,0-2.16-2,16.16,16.16,0,0,0-3.2-1.45L365.73,27a36.33,36.33,0,0,1-3.94-1.48,12.83,12.83,0,0,1-3.55-2.28,10.9,10.9,0,0,1-2.55-3.48,11.84,11.84,0,0,1-1-5.14,11.31,11.31,0,0,1,1.39-5.73,12.22,12.22,0,0,1,3.63-4,16.09,16.09,0,0,1,5.12-2.34,22.41,22.41,0,0,1,5.82-.77A20.75,20.75,0,0,1,377.4,3a16.43,16.43,0,0,1,5.94,3.51Z"/><path class="cls-1" d="M391.41,2.9h7.76V20.51h20.39V2.9h7.76V46.51h-7.76V27.17H399.17V46.51h-7.76Z"/><path class="cls-1" d="M490.27,2.9h15.15a27.39,27.39,0,0,1,6,.64,15.46,15.46,0,0,1,5.14,2.13,11,11,0,0,1,3.6,3.88,11.66,11.66,0,0,1,1.36,5.85,11.12,11.12,0,0,1-2.68,7.73,13.54,13.54,0,0,1-7.3,4l11.64,19.34H513.8L503.7,28H498V46.51h-7.76Zm14.1,18.78a23.31,23.31,0,0,0,3.33-.24,9.61,9.61,0,0,0,3-.93,5.72,5.72,0,0,0,2.18-1.94,5.57,5.57,0,0,0,.87-3.23,5,5,0,0,0-.8-2.93,6,6,0,0,0-2-1.81,8.63,8.63,0,0,0-2.8-.93,20.18,20.18,0,0,0-3.05-.24h-7V21.68Z"/><path class="cls-1" d="M529,2.9h7.76V21.75H537L555.19,2.9h10.47L545.27,23,567,46.51H556.11L537,24.64h-.19V46.51H529Z"/><path class="cls-1" d="M593.69,12a9.67,9.67,0,0,0-3.48-2.68,10.51,10.51,0,0,0-4.53-1.07,11.35,11.35,0,0,0-2.71.33,8.41,8.41,0,0,0-2.47,1.05,5.82,5.82,0,0,0-1.81,1.85,5,5,0,0,0-.71,2.74,4.91,4.91,0,0,0,.61,2.53,5.65,5.65,0,0,0,1.7,1.78,11.63,11.63,0,0,0,2.62,1.3c1,.37,2.15.73,3.38,1.1,1.4.46,2.85,1,4.35,1.54a17,17,0,0,1,4.12,2.28,11.25,11.25,0,0,1,3.08,3.58,10.86,10.86,0,0,1,1.2,5.35,13.67,13.67,0,0,1-1.29,6.13,12.57,12.57,0,0,1-3.45,4.35,14.63,14.63,0,0,1-5,2.58,21.06,21.06,0,0,1-6.1.86A22.81,22.81,0,0,1,574.84,46a15.9,15.9,0,0,1-6.65-4.65l5.54-5.17A11.08,11.08,0,0,0,578,39.73,12.09,12.09,0,0,0,583.28,41a12.24,12.24,0,0,0,2.77-.33,7.55,7.55,0,0,0,2.55-1.14,6.46,6.46,0,0,0,1.85-2,5.79,5.79,0,0,0,.71-3,4.91,4.91,0,0,0-.8-2.87,7.12,7.12,0,0,0-2.16-2,16.16,16.16,0,0,0-3.2-1.45L581.12,27a37.13,37.13,0,0,1-3.94-1.48,12.63,12.63,0,0,1-3.54-2.28,10.92,10.92,0,0,1-2.56-3.48,11.84,11.84,0,0,1-1-5.14,11.31,11.31,0,0,1,1.38-5.73,12.36,12.36,0,0,1,3.64-4,15.93,15.93,0,0,1,5.11-2.34,22.47,22.47,0,0,1,5.82-.77A20.71,20.71,0,0,1,592.79,3a16.55,16.55,0,0,1,6,3.51Z"/><path class="cls-1" d="M469.3,23c4.49,6.05,7.18,13.65,8,22.6h6.78a42.13,42.13,0,0,0-13-31.55c-9.85-9.65-23.76-14.68-38.47-14,11.13,16,12.26,31,3.43,45.66h.31c.72,0,1.39,0,2,0,0,0,1.71.14,2.56.17,2.89.1,3.64,0,4.91-3.34.39-1,2.66-5.6,3-10.27.42-6.16.16-3.39.11-8.72a66.64,66.64,0,0,0-1.21-9.26,15.53,15.53,0,0,0-1.23-4l-1.5-3.3,3.5,1.39C457.55,11.6,464.53,16.53,469.3,23Z"/><path class="cls-2" d="M269,2.84h6.71l18.79,43.6h-8.87l-4.07-10H262.64l-3.94,10H250Zm9.85,27-6.71-17.73-6.84,17.73Z"/><path class="cls-2" d="M5.7,60.74V83.36H2.29V60.74Z"/><path class="cls-2" d="M15.31,69.09h3.31v1.32a5.4,5.4,0,0,1,3.9-1.71,4.93,4.93,0,0,1,3.88,1.56,6.44,6.44,0,0,1,1.2,4.36v8.74H24.29v-8a5.2,5.2,0,0,0-.59-2.91,2.35,2.35,0,0,0-2.08-.82,2.55,2.55,0,0,0-2.33,1.08,7.46,7.46,0,0,0-.67,3.74v6.88H15.31Z"/><path class="cls-2" d="M40,72.17V83.36h-3.3V72.17H35.25V69.09h1.41V63.86H40v5.23h2.56v3.08Z"/><path class="cls-2" d="M62.82,77H52.59a4.3,4.3,0,0,0,1.15,2.8,3.5,3.5,0,0,0,2.59,1,3.4,3.4,0,0,0,2-.59,8.52,8.52,0,0,0,1.8-2.17L63,79.63a11.39,11.39,0,0,1-1.36,1.88,7.38,7.38,0,0,1-1.54,1.29,6.57,6.57,0,0,1-1.77.74,9,9,0,0,1-2.07.23,6.69,6.69,0,0,1-5.12-2,7.69,7.69,0,0,1-1.94-5.48A7.93,7.93,0,0,1,51,70.76a6.48,6.48,0,0,1,5-2.06,6.43,6.43,0,0,1,5,2,7.91,7.91,0,0,1,1.81,5.53Zm-3.38-2.69a3.16,3.16,0,0,0-3.33-2.64,3.27,3.27,0,0,0-2.83,1.54,4.06,4.06,0,0,0-.47,1.1Z"/><path class="cls-2" d="M71.22,69.09h3.3v1.28a6.23,6.23,0,0,1,1.61-1.31,3.74,3.74,0,0,1,1.7-.36,5.25,5.25,0,0,1,2.72.85l-1.5,3a3.23,3.23,0,0,0-1.84-.67q-2.68,0-2.69,4.07v7.4h-3.3Z"/><path class="cls-2" d="M89.88,69.09l3.7,8,3.67-8H101L93.55,84.34,86.19,69.09Z"/><path class="cls-2" d="M120.05,77H109.82A4.34,4.34,0,0,0,111,79.8a3.52,3.52,0,0,0,2.6,1,3.34,3.34,0,0,0,2-.59,8.13,8.13,0,0,0,1.8-2.17l2.79,1.56a12,12,0,0,1-1.36,1.88,7.65,7.65,0,0,1-1.54,1.29,6.5,6.5,0,0,1-1.78.74,8.9,8.9,0,0,1-2.06.23,6.71,6.71,0,0,1-5.13-2,7.69,7.69,0,0,1-1.93-5.48,7.92,7.92,0,0,1,1.87-5.48,7.16,7.16,0,0,1,10-.06,7.86,7.86,0,0,1,1.82,5.53Zm-3.39-2.69a3.16,3.16,0,0,0-3.32-2.64,3.25,3.25,0,0,0-2.09.71,3.27,3.27,0,0,0-.74.83,3.77,3.77,0,0,0-.47,1.1Z"/><path class="cls-2" d="M128.45,69.09h3.31v1.32a5.4,5.4,0,0,1,3.9-1.71,4.93,4.93,0,0,1,3.88,1.56,6.44,6.44,0,0,1,1.2,4.36v8.74h-3.31v-8a5.2,5.2,0,0,0-.59-2.91,2.35,2.35,0,0,0-2.08-.82,2.55,2.55,0,0,0-2.33,1.08,7.46,7.46,0,0,0-.67,3.74v6.88h-3.31Z"/><path class="cls-2" d="M153.1,72.17V83.36h-3.3V72.17h-1.4V69.09h1.4V63.86h3.3v5.23h2.56v3.08Z"/><path class="cls-2" d="M162.21,63.16A2.15,2.15,0,0,1,164.34,61a2.08,2.08,0,0,1,1.53.63,2,2,0,0,1,.63,1.51,2.08,2.08,0,0,1-.63,1.52,2.14,2.14,0,0,1-3,0A2.09,2.09,0,0,1,162.21,63.16ZM166,69.09V83.36h-3.3V69.09Z"/><path class="cls-2" d="M174.3,76.12a7.08,7.08,0,0,1,2.21-5.25,7.8,7.8,0,0,1,10.81,0,7.64,7.64,0,0,1,0,10.74,7.6,7.6,0,0,1-5.47,2.15,7.22,7.22,0,0,1-5.37-2.2A7.36,7.36,0,0,1,174.3,76.12Zm3.37.06a4.83,4.83,0,0,0,1.14,3.39,4.43,4.43,0,0,0,6.18,0,5.35,5.35,0,0,0,0-6.65,4.38,4.38,0,0,0-6.15,0A4.58,4.58,0,0,0,177.67,76.18Z"/><path class="cls-2" d="M197.81,69.09h3.31v1.32A5.4,5.4,0,0,1,205,68.7a4.92,4.92,0,0,1,3.88,1.56c.81.89,1.21,2.34,1.21,4.36v8.74h-3.31v-8a5.2,5.2,0,0,0-.59-2.91,2.35,2.35,0,0,0-2.08-.82,2.55,2.55,0,0,0-2.33,1.08,7.46,7.46,0,0,0-.67,3.74v6.88h-3.31Z"/><path class="cls-2" d="M230,81.72a1.94,1.94,0,0,1,.6-1.42,2,2,0,1,1,2.87,2.88,1.92,1.92,0,0,1-1.44.59,2,2,0,0,1-1.45-.59A2,2,0,0,1,230,81.72Z"/><path class="cls-2" d="M267.45,64.11l-2.77,1.64A4.69,4.69,0,0,0,263.2,64a3.4,3.4,0,0,0-1.89-.47,3.53,3.53,0,0,0-2.36.8,2.52,2.52,0,0,0-.94,2Q258,68,260.47,69l2.26.92a9.68,9.68,0,0,1,4,2.72A6.12,6.12,0,0,1,268,76.56,6.91,6.91,0,0,1,266,81.72a7.12,7.12,0,0,1-5.2,2A7,7,0,0,1,255.89,82a8,8,0,0,1-2.36-4.91l3.46-.76a5.8,5.8,0,0,0,.82,2.75,3.54,3.54,0,0,0,3.07,1.47,3.6,3.6,0,0,0,2.66-1.07,3.71,3.71,0,0,0,1-2.71,3.89,3.89,0,0,0-.18-1.21,3.17,3.17,0,0,0-.57-1,4.63,4.63,0,0,0-1-.87,10.36,10.36,0,0,0-1.46-.76L259.19,72c-3.1-1.31-4.65-3.23-4.65-5.74a5.47,5.47,0,0,1,2-4.27,7.06,7.06,0,0,1,4.85-1.73A6.77,6.77,0,0,1,267.45,64.11Z"/><path class="cls-2" d="M279.62,69.09v8.19c0,2.36.93,3.55,2.79,3.55s2.8-1.19,2.8-3.55V69.09h3.3v8.26a9,9,0,0,1-.43,3,4.86,4.86,0,0,1-1.42,2,6.92,6.92,0,0,1-8.48,0,5,5,0,0,1-1.45-2,8.22,8.22,0,0,1-.41-3V69.09Z"/><path class="cls-2" d="M300.76,91.12h-3.29v-22h3.29v1.56a6.26,6.26,0,0,1,9.28.22A7.84,7.84,0,0,1,312,76.3a7.72,7.72,0,0,1-1.92,5.35,6.26,6.26,0,0,1-9.29.11Zm7.84-14.81A5,5,0,0,0,307.49,73a3.64,3.64,0,0,0-2.85-1.3,3.75,3.75,0,0,0-2.94,1.26,4.78,4.78,0,0,0-1.13,3.31,4.89,4.89,0,0,0,1.13,3.31,3.7,3.7,0,0,0,2.93,1.28,3.59,3.59,0,0,0,2.83-1.29A4.71,4.71,0,0,0,308.6,76.31Z"/><path class="cls-2" d="M323.55,91.12h-3.29v-22h3.29v1.56a6.25,6.25,0,0,1,9.27.22,7.8,7.8,0,0,1,1.94,5.43,7.72,7.72,0,0,1-1.92,5.35,6.26,6.26,0,0,1-9.29.11Zm7.84-14.81A5,5,0,0,0,330.28,73a3.64,3.64,0,0,0-2.85-1.3,3.75,3.75,0,0,0-2.94,1.26,4.78,4.78,0,0,0-1.13,3.31,4.89,4.89,0,0,0,1.13,3.31,3.7,3.7,0,0,0,2.93,1.28,3.59,3.59,0,0,0,2.83-1.29A4.71,4.71,0,0,0,331.39,76.31Z"/><path class="cls-2" d="M342.37,76.12a7.08,7.08,0,0,1,2.21-5.25,7.8,7.8,0,0,1,10.81,0,7.64,7.64,0,0,1,0,10.74,7.6,7.6,0,0,1-5.47,2.15,7.22,7.22,0,0,1-5.37-2.2A7.36,7.36,0,0,1,342.37,76.12Zm3.37.06a4.83,4.83,0,0,0,1.14,3.39,4.43,4.43,0,0,0,6.18,0,5.35,5.35,0,0,0,0-6.65,4.38,4.38,0,0,0-6.15,0A4.58,4.58,0,0,0,345.74,76.18Z"/><path class="cls-2" d="M365.88,69.09h3.29v1.28a6.58,6.58,0,0,1,1.61-1.31,3.77,3.77,0,0,1,1.7-.36,5.31,5.31,0,0,1,2.73.85l-1.51,3a3.23,3.23,0,0,0-1.83-.67q-2.7,0-2.7,4.07v7.4h-3.29Z"/><path class="cls-2" d="M386.38,72.17V83.36h-3.3V72.17h-1.4V69.09h1.4V63.86h3.3v5.23h2.56v3.08Z"/><path class="cls-2" d="M407,81.72a1.91,1.91,0,0,1,.61-1.42,1.94,1.94,0,0,1,1.43-.6,2,2,0,0,1,1.44,3.48,2.06,2.06,0,0,1-2.89,0A2,2,0,0,1,407,81.72Z"/><path class="cls-2" d="M444.07,64H435v5.44h8.8v3.2H435v7.56h9.07v3.21H431.59V60.74h12.48Z"/><path class="cls-2" d="M463.24,58.62h3.31V83.36h-3.31V81.87a6.15,6.15,0,0,1-4.41,1.9A6.25,6.25,0,0,1,454,81.63a7.94,7.94,0,0,1-1.92-5.45A7.69,7.69,0,0,1,454,70.85a6.16,6.16,0,0,1,9.27-.1Zm-7.82,17.56a5,5,0,0,0,1.09,3.34,3.62,3.62,0,0,0,2.85,1.31,3.8,3.8,0,0,0,3-1.26,5.45,5.45,0,0,0,0-6.62,3.75,3.75,0,0,0-2.93-1.28A3.66,3.66,0,0,0,456.54,73,4.75,4.75,0,0,0,455.42,76.18Z"/><path class="cls-2" d="M478.08,69.09v8.19c0,2.36.94,3.55,2.8,3.55s2.8-1.19,2.8-3.55V69.09H487v8.26a9.25,9.25,0,0,1-.43,3,5,5,0,0,1-1.42,2,6.92,6.92,0,0,1-8.48,0,5,5,0,0,1-1.45-2,8.22,8.22,0,0,1-.41-3V69.09Z"/><path class="cls-2" d="M506.32,69.71v4.38a8,8,0,0,0-2-1.89,4,4,0,0,0-2.07-.53,4.1,4.1,0,0,0-3.09,1.3,4.58,4.58,0,0,0-1.23,3.27,4.69,4.69,0,0,0,1.19,3.3,4,4,0,0,0,3.06,1.29,4.08,4.08,0,0,0,2.09-.52,8.1,8.1,0,0,0,2.07-1.93v4.35a8.71,8.71,0,0,1-4,1,7.66,7.66,0,0,1-5.54-2.14,7.11,7.11,0,0,1-2.23-5.34,7.24,7.24,0,0,1,2.26-5.4,7.64,7.64,0,0,1,5.54-2.19A8.21,8.21,0,0,1,506.32,69.71Z"/><path class="cls-2" d="M524.11,69.09h3.31V83.36h-3.31V81.87a6.33,6.33,0,0,1-9.27-.24,7.94,7.94,0,0,1-1.92-5.45,7.68,7.68,0,0,1,1.92-5.34,6.17,6.17,0,0,1,4.8-2.14,6.06,6.06,0,0,1,4.47,2Zm-7.82,7.09a4.93,4.93,0,0,0,1.1,3.34,3.6,3.6,0,0,0,2.84,1.31,3.78,3.78,0,0,0,3-1.26,5.41,5.41,0,0,0,0-6.62,3.73,3.73,0,0,0-2.93-1.28A3.64,3.64,0,0,0,517.42,73,4.71,4.71,0,0,0,516.29,76.18Z"/><path class="cls-2" d="M539.78,72.17V83.36h-3.3V72.17h-1.4V69.09h1.4V63.86h3.3v5.23h2.56v3.08Z"/><path class="cls-2" d="M548.89,63.16a2,2,0,0,1,.63-1.49A2.05,2.05,0,0,1,551,61a2.08,2.08,0,0,1,1.52.63,2,2,0,0,1,.63,1.51,2.08,2.08,0,0,1-.63,1.52,2,2,0,0,1-1.51.63,2.06,2.06,0,0,1-1.52-.63A2.09,2.09,0,0,1,548.89,63.16Zm3.79,5.93V83.36h-3.29V69.09Z"/><path class="cls-2" d="M561,76.12a7.08,7.08,0,0,1,2.21-5.25,7.8,7.8,0,0,1,10.81,0,7.64,7.64,0,0,1,0,10.74,7.58,7.58,0,0,1-5.46,2.15,7.25,7.25,0,0,1-5.38-2.2A7.36,7.36,0,0,1,561,76.12Zm3.37.06a4.83,4.83,0,0,0,1.14,3.39,4.44,4.44,0,0,0,6.19,0,5.38,5.38,0,0,0,0-6.65,4.05,4.05,0,0,0-3.1-1.26,4,4,0,0,0-3.06,1.26A4.58,4.58,0,0,0,564.35,76.18Z"/><path class="cls-2" d="M583.35,69.09h3.31v1.32a5.4,5.4,0,0,1,3.9-1.71,4.93,4.93,0,0,1,3.88,1.56,6.44,6.44,0,0,1,1.2,4.36v8.74h-3.31v-8a5.2,5.2,0,0,0-.59-2.91,2.35,2.35,0,0,0-2.08-.82,2.55,2.55,0,0,0-2.33,1.08,7.46,7.46,0,0,0-.67,3.74v6.88h-3.31Z"/></svg>